<svg width="21" height="23" viewBox="0 0 21 23" fill="none" xmlns="http://www.w3.org/2000/svg">
<path fill-rule="evenodd" clip-rule="evenodd" d="M3.52417 4.26541C2.97189 4.26541 2.52417 4.71313 2.52417 5.26541V19.2654C2.52417 19.8177 2.97189 20.2654 3.52417 20.2654H17.5242C18.0765 20.2654 18.5242 19.8177 18.5242 19.2654V5.26541C18.5242 4.71313 18.0765 4.26541 17.5242 4.26541H3.52417ZM0.52417 5.26541C0.52417 3.60856 1.86732 2.26541 3.52417 2.26541H17.5242C19.181 2.26541 20.5242 3.60856 20.5242 5.26541V19.2654C20.5242 20.9223 19.181 22.2654 17.5242 22.2654H3.52417C1.86732 22.2654 0.52417 20.9223 0.52417 19.2654V5.26541Z" fill="#464646"/>
<path fill-rule="evenodd" clip-rule="evenodd" d="M14.5242 0.265411C15.0765 0.265411 15.5242 0.713127 15.5242 1.26541V5.26541C15.5242 5.8177 15.0765 6.26541 14.5242 6.26541C13.9719 6.26541 13.5242 5.8177 13.5242 5.26541V1.26541C13.5242 0.713127 13.9719 0.265411 14.5242 0.265411Z" fill="#464646"/>
<path fill-rule="evenodd" clip-rule="evenodd" d="M6.52417 0.265411C7.07645 0.265411 7.52417 0.713127 7.52417 1.26541V5.26541C7.52417 5.8177 7.07645 6.26541 6.52417 6.26541C5.97189 6.26541 5.52417 5.8177 5.52417 5.26541V1.26541C5.52417 0.713127 5.97189 0.265411 6.52417 0.265411Z" fill="#464646"/>
<path fill-rule="evenodd" clip-rule="evenodd" d="M0.52417 9.26541C0.52417 8.71313 0.971885 8.26541 1.52417 8.26541H19.5242C20.0765 8.26541 20.5242 8.71313 20.5242 9.26541C20.5242 9.8177 20.0765 10.2654 19.5242 10.2654H1.52417C0.971885 10.2654 0.52417 9.8177 0.52417 9.26541Z" fill="#464646"/>
</svg>
