<svg width="21" height="23" viewBox="0 0 21 23" fill="none" xmlns="http://www.w3.org/2000/svg">
<path fill-rule="evenodd" clip-rule="evenodd" d="M3.52417 4.79901C2.97189 4.79901 2.52417 5.24673 2.52417 5.79901V19.799C2.52417 20.3513 2.97189 20.799 3.52417 20.799H17.5242C18.0765 20.799 18.5242 20.3513 18.5242 19.799V5.79901C18.5242 5.24673 18.0765 4.79901 17.5242 4.79901H3.52417ZM0.52417 5.79901C0.52417 4.14216 1.86732 2.79901 3.52417 2.79901H17.5242C19.181 2.79901 20.5242 4.14216 20.5242 5.79901V19.799C20.5242 21.4559 19.181 22.799 17.5242 22.799H3.52417C1.86732 22.799 0.52417 21.4559 0.52417 19.799V5.79901Z" fill="#4894FF"/>
<path fill-rule="evenodd" clip-rule="evenodd" d="M14.5242 0.799011C15.0765 0.799011 15.5242 1.24673 15.5242 1.79901V5.79901C15.5242 6.3513 15.0765 6.79901 14.5242 6.79901C13.9719 6.79901 13.5242 6.3513 13.5242 5.79901V1.79901C13.5242 1.24673 13.9719 0.799011 14.5242 0.799011Z" fill="#4894FF"/>
<path fill-rule="evenodd" clip-rule="evenodd" d="M6.52417 0.799011C7.07645 0.799011 7.52417 1.24673 7.52417 1.79901V5.79901C7.52417 6.3513 7.07645 6.79901 6.52417 6.79901C5.97189 6.79901 5.52417 6.3513 5.52417 5.79901V1.79901C5.52417 1.24673 5.97189 0.799011 6.52417 0.799011Z" fill="#4894FF"/>
<path fill-rule="evenodd" clip-rule="evenodd" d="M0.52417 9.79901C0.52417 9.24673 0.971885 8.79901 1.52417 8.79901H19.5242C20.0765 8.79901 20.5242 9.24673 20.5242 9.79901C20.5242 10.3513 20.0765 10.799 19.5242 10.799H1.52417C0.971885 10.799 0.52417 10.3513 0.52417 9.79901Z" fill="#4894FF"/>
</svg>
