<svg width="60" height="43" viewBox="0 0 60 43" fill="none" xmlns="http://www.w3.org/2000/svg">
<g opacity="0.3">
<path d="M5.5558 37.3374C4.9238 37.3374 4.3398 37.2334 3.8038 37.0254C3.2678 36.8094 2.8038 36.5094 2.41179 36.1254C2.0198 35.7414 1.7118 35.2894 1.48779 34.7694C1.27179 34.2494 1.16379 33.6814 1.16379 33.0654C1.16379 32.4494 1.27179 31.8814 1.48779 31.3614C1.7118 30.8414 2.0198 30.3894 2.41179 30.0054C2.8118 29.6214 3.2798 29.3254 3.81579 29.1174C4.35179 28.9014 4.9358 28.7934 5.5678 28.7934C6.1758 28.7934 6.7478 28.8974 7.2838 29.1054C7.8198 29.3054 8.2718 29.6094 8.6398 30.0174L8.0758 30.5814C7.7318 30.2294 7.3518 29.9774 6.9358 29.8254C6.5198 29.6654 6.0718 29.5854 5.5918 29.5854C5.0878 29.5854 4.6198 29.6734 4.1878 29.8494C3.7558 30.0174 3.37979 30.2614 3.0598 30.5814C2.73979 30.8934 2.48779 31.2614 2.30379 31.6854C2.12779 32.1014 2.03979 32.5614 2.03979 33.0654C2.03979 33.5694 2.12779 34.0334 2.30379 34.4574C2.48779 34.8734 2.73979 35.2414 3.0598 35.5614C3.37979 35.8734 3.7558 36.1174 4.1878 36.2934C4.6198 36.4614 5.0878 36.5454 5.5918 36.5454C6.0718 36.5454 6.5198 36.4654 6.9358 36.3054C7.3518 36.1454 7.7318 35.8894 8.0758 35.5374L8.6398 36.1014C8.2718 36.5094 7.8198 36.8174 7.2838 37.0254C6.7478 37.2334 6.1718 37.3374 5.5558 37.3374ZM12.6395 37.3254C12.0315 37.3254 11.4835 37.1894 10.9955 36.9174C10.5155 36.6374 10.1355 36.2574 9.85554 35.7774C9.57554 35.2894 9.43554 34.7334 9.43554 34.1094C9.43554 33.4774 9.57554 32.9214 9.85554 32.4414C10.1355 31.9614 10.5155 31.5854 10.9955 31.3134C11.4755 31.0414 12.0235 30.9054 12.6395 30.9054C13.2635 30.9054 13.8155 31.0414 14.2955 31.3134C14.7835 31.5854 15.1635 31.9614 15.4355 32.4414C15.7155 32.9214 15.8555 33.4774 15.8555 34.1094C15.8555 34.7334 15.7155 35.2894 15.4355 35.7774C15.1635 36.2574 14.7835 36.6374 14.2955 36.9174C13.8075 37.1894 13.2555 37.3254 12.6395 37.3254ZM12.6395 36.5694C13.0955 36.5694 13.4995 36.4694 13.8515 36.2694C14.2035 36.0614 14.4795 35.7734 14.6795 35.4054C14.8875 35.0294 14.9915 34.5974 14.9915 34.1094C14.9915 33.6134 14.8875 33.1814 14.6795 32.8134C14.4795 32.4454 14.2035 32.1614 13.8515 31.9614C13.4995 31.7534 13.0995 31.6494 12.6515 31.6494C12.2035 31.6494 11.8035 31.7534 11.4515 31.9614C11.0995 32.1614 10.8195 32.4454 10.6115 32.8134C10.4035 33.1814 10.2995 33.6134 10.2995 34.1094C10.2995 34.5974 10.4035 35.0294 10.6115 35.4054C10.8195 35.7734 11.0995 36.0614 11.4515 36.2694C11.8035 36.4694 12.1995 36.5694 12.6395 36.5694ZM20.811 30.9054C21.323 30.9054 21.771 31.0054 22.155 31.2054C22.547 31.3974 22.851 31.6934 23.067 32.0934C23.291 32.4934 23.403 32.9974 23.403 33.6054V37.2654H22.551V33.6894C22.551 33.0254 22.383 32.5254 22.047 32.1894C21.719 31.8454 21.255 31.6734 20.655 31.6734C20.207 31.6734 19.815 31.7654 19.479 31.9494C19.151 32.1254 18.895 32.3854 18.711 32.7294C18.535 33.0654 18.447 33.4734 18.447 33.9534V37.2654H17.595V30.9654H18.411V32.6934L18.279 32.3694C18.479 31.9134 18.799 31.5574 19.239 31.3014C19.679 31.0374 20.203 30.9054 20.811 30.9054ZM27.3964 37.3254C26.8764 37.3254 26.3844 37.2534 25.9204 37.1094C25.4564 36.9574 25.0924 36.7694 24.8284 36.5454L25.2124 35.8734C25.4684 36.0654 25.7964 36.2334 26.1964 36.3774C26.5964 36.5134 27.0164 36.5814 27.4564 36.5814C28.0564 36.5814 28.4884 36.4894 28.7524 36.3054C29.0164 36.1134 29.1484 35.8614 29.1484 35.5494C29.1484 35.3174 29.0724 35.1374 28.9204 35.0094C28.7764 34.8734 28.5844 34.7734 28.3444 34.7094C28.1044 34.6374 27.8364 34.5774 27.5404 34.5294C27.2444 34.4814 26.9484 34.4254 26.6524 34.3614C26.3644 34.2974 26.1004 34.2054 25.8604 34.0854C25.6204 33.9574 25.4244 33.7854 25.2724 33.5694C25.1284 33.3534 25.0564 33.0654 25.0564 32.7054C25.0564 32.3614 25.1524 32.0534 25.3444 31.7814C25.5364 31.5094 25.8164 31.2974 26.1844 31.1454C26.5604 30.9854 27.0164 30.9054 27.5524 30.9054C27.9604 30.9054 28.3684 30.9614 28.7764 31.0734C29.1844 31.1774 29.5204 31.3174 29.7844 31.4934L29.4124 32.1774C29.1324 31.9854 28.8324 31.8494 28.5124 31.7694C28.1924 31.6814 27.8724 31.6374 27.5524 31.6374C26.9844 31.6374 26.5644 31.7374 26.2924 31.9374C26.0284 32.1294 25.8964 32.3774 25.8964 32.6814C25.8964 32.9214 25.9684 33.1094 26.1124 33.2454C26.2644 33.3814 26.4604 33.4894 26.7004 33.5694C26.9484 33.6414 27.2164 33.7014 27.5044 33.7494C27.8004 33.7974 28.0924 33.8574 28.3804 33.9294C28.6764 33.9934 28.9444 34.0854 29.1844 34.2054C29.4324 34.3174 29.6284 34.4814 29.7724 34.6974C29.9244 34.9054 30.0004 35.1814 30.0004 35.5254C30.0004 35.8934 29.8964 36.2134 29.6884 36.4854C29.4884 36.7494 29.1924 36.9574 28.8004 37.1094C28.4164 37.2534 27.9484 37.3254 27.3964 37.3254ZM34.1677 37.3254C33.6317 37.3254 33.1637 37.2254 32.7637 37.0254C32.3637 36.8254 32.0517 36.5254 31.8277 36.1254C31.6117 35.7254 31.5037 35.2254 31.5037 34.6254V30.9654H32.3557V34.5294C32.3557 35.2014 32.5197 35.7094 32.8477 36.0534C33.1837 36.3894 33.6517 36.5574 34.2517 36.5574C34.6917 36.5574 35.0717 36.4694 35.3917 36.2934C35.7197 36.1094 35.9677 35.8454 36.1357 35.5014C36.3117 35.1574 36.3997 34.7454 36.3997 34.2654V30.9654H37.2517V37.2654H36.4357V35.5374L36.5677 35.8494C36.3677 36.3134 36.0557 36.6774 35.6317 36.9414C35.2157 37.1974 34.7277 37.3254 34.1677 37.3254ZM39.6262 37.2654V28.3614H40.4782V37.2654H39.6262ZM44.876 37.3254C44.284 37.3254 43.828 37.1654 43.508 36.8454C43.188 36.5254 43.028 36.0734 43.028 35.4894V29.5734H43.88V35.4414C43.88 35.8094 43.972 36.0934 44.156 36.2934C44.348 36.4934 44.62 36.5934 44.972 36.5934C45.348 36.5934 45.66 36.4854 45.908 36.2694L46.208 36.8814C46.04 37.0334 45.836 37.1454 45.596 37.2174C45.364 37.2894 45.124 37.3254 44.876 37.3254ZM41.9 31.6734V30.9654H45.8V31.6734H41.9ZM51.707 37.2654V35.8734L51.671 35.6454V33.3174C51.671 32.7814 51.519 32.3694 51.215 32.0814C50.919 31.7934 50.475 31.6494 49.883 31.6494C49.475 31.6494 49.087 31.7174 48.719 31.8534C48.351 31.9894 48.039 32.1694 47.783 32.3934L47.399 31.7574C47.719 31.4854 48.103 31.2774 48.551 31.1334C48.999 30.9814 49.471 30.9054 49.967 30.9054C50.783 30.9054 51.411 31.1094 51.851 31.5174C52.299 31.9174 52.523 32.5294 52.523 33.3534V37.2654H51.707ZM49.535 37.3254C49.063 37.3254 48.651 37.2494 48.299 37.0974C47.955 36.9374 47.691 36.7214 47.507 36.4494C47.323 36.1694 47.231 35.8494 47.231 35.4894C47.231 35.1614 47.307 34.8654 47.459 34.6014C47.619 34.3294 47.875 34.1134 48.227 33.9534C48.587 33.7854 49.067 33.7014 49.667 33.7014H51.839V34.3374H49.691C49.083 34.3374 48.659 34.4454 48.419 34.6614C48.187 34.8774 48.071 35.1454 48.071 35.4654C48.071 35.8254 48.211 36.1134 48.491 36.3294C48.771 36.5454 49.163 36.6534 49.667 36.6534C50.147 36.6534 50.559 36.5454 50.903 36.3294C51.255 36.1054 51.511 35.7854 51.671 35.3694L51.863 35.9574C51.703 36.3734 51.423 36.7054 51.023 36.9534C50.631 37.2014 50.135 37.3254 49.535 37.3254ZM56.5292 37.3254C56.0092 37.3254 55.5172 37.2534 55.0532 37.1094C54.5892 36.9574 54.2252 36.7694 53.9612 36.5454L54.3452 35.8734C54.6012 36.0654 54.9292 36.2334 55.3292 36.3774C55.7292 36.5134 56.1492 36.5814 56.5892 36.5814C57.1892 36.5814 57.6212 36.4894 57.8852 36.3054C58.1492 36.1134 58.2812 35.8614 58.2812 35.5494C58.2812 35.3174 58.2052 35.1374 58.0532 35.0094C57.9092 34.8734 57.7172 34.7734 57.4772 34.7094C57.2372 34.6374 56.9692 34.5774 56.6732 34.5294C56.3772 34.4814 56.0812 34.4254 55.7852 34.3614C55.4972 34.2974 55.2332 34.2054 54.9932 34.0854C54.7532 33.9574 54.5572 33.7854 54.4052 33.5694C54.2612 33.3534 54.1892 33.0654 54.1892 32.7054C54.1892 32.3614 54.2852 32.0534 54.4772 31.7814C54.6692 31.5094 54.9492 31.2974 55.3172 31.1454C55.6932 30.9854 56.1492 30.9054 56.6852 30.9054C57.0932 30.9054 57.5012 30.9614 57.9092 31.0734C58.3172 31.1774 58.6532 31.3174 58.9172 31.4934L58.5452 32.1774C58.2652 31.9854 57.9652 31.8494 57.6452 31.7694C57.3252 31.6814 57.0052 31.6374 56.6852 31.6374C56.1172 31.6374 55.6972 31.7374 55.4252 31.9374C55.1612 32.1294 55.0292 32.3774 55.0292 32.6814C55.0292 32.9214 55.1012 33.1094 55.2452 33.2454C55.3972 33.3814 55.5932 33.4894 55.8332 33.5694C56.0812 33.6414 56.3492 33.7014 56.6372 33.7494C56.9332 33.7974 57.2252 33.8574 57.5132 33.9294C57.8092 33.9934 58.0772 34.0854 58.3172 34.2054C58.5652 34.3174 58.7612 34.4814 58.9052 34.6974C59.0572 34.9054 59.1332 35.1814 59.1332 35.5254C59.1332 35.8934 59.0292 36.2134 58.8212 36.4854C58.6212 36.7494 58.3252 36.9574 57.9332 37.1094C57.5492 37.2534 57.0812 37.3254 56.5292 37.3254Z" fill="#464646"/>
<path fill-rule="evenodd" clip-rule="evenodd" d="M22.5242 4.26541C21.9719 4.26541 21.5242 4.71313 21.5242 5.26541V19.2654C21.5242 19.8177 21.9719 20.2654 22.5242 20.2654H36.5242C37.0765 20.2654 37.5242 19.8177 37.5242 19.2654V5.26541C37.5242 4.71313 37.0765 4.26541 36.5242 4.26541H22.5242ZM19.5242 5.26541C19.5242 3.60856 20.8673 2.26541 22.5242 2.26541H36.5242C38.181 2.26541 39.5242 3.60856 39.5242 5.26541V19.2654C39.5242 20.9223 38.181 22.2654 36.5242 22.2654H22.5242C20.8673 22.2654 19.5242 20.9223 19.5242 19.2654V5.26541Z" fill="#464646"/>
<path fill-rule="evenodd" clip-rule="evenodd" d="M33.5242 0.265411C34.0765 0.265411 34.5242 0.713127 34.5242 1.26541V5.26541C34.5242 5.8177 34.0765 6.26541 33.5242 6.26541C32.9719 6.26541 32.5242 5.8177 32.5242 5.26541V1.26541C32.5242 0.713127 32.9719 0.265411 33.5242 0.265411Z" fill="#464646"/>
<path fill-rule="evenodd" clip-rule="evenodd" d="M25.5242 0.265411C26.0765 0.265411 26.5242 0.713127 26.5242 1.26541V5.26541C26.5242 5.8177 26.0765 6.26541 25.5242 6.26541C24.9719 6.26541 24.5242 5.8177 24.5242 5.26541V1.26541C24.5242 0.713127 24.9719 0.265411 25.5242 0.265411Z" fill="#464646"/>
<path fill-rule="evenodd" clip-rule="evenodd" d="M19.5242 9.26541C19.5242 8.71313 19.9719 8.26541 20.5242 8.26541H38.5242C39.0765 8.26541 39.5242 8.71313 39.5242 9.26541C39.5242 9.8177 39.0765 10.2654 38.5242 10.2654H20.5242C19.9719 10.2654 19.5242 9.8177 19.5242 9.26541Z" fill="#464646"/>
</g>
</svg>
