<svg width="61" height="43" viewBox="0 0 61 43" fill="none" xmlns="http://www.w3.org/2000/svg">
<path d="M6.03822 37.3374C5.20622 37.3374 4.45422 37.1534 3.78222 36.7854C3.11822 36.4174 2.59422 35.9094 2.21022 35.2614C1.83422 34.6054 1.64622 33.8734 1.64622 33.0654C1.64622 32.2574 1.83422 31.5294 2.21022 30.8814C2.59422 30.2254 3.12222 29.7134 3.79422 29.3454C4.46622 28.9774 5.21822 28.7934 6.05022 28.7934C6.67422 28.7934 7.25022 28.8974 7.77822 29.1054C8.30622 29.3134 8.75422 29.6174 9.12222 30.0174L8.55822 30.5814C7.90222 29.9174 7.07422 29.5854 6.07422 29.5854C5.41022 29.5854 4.80622 29.7374 4.26222 30.0414C3.71822 30.3454 3.29022 30.7614 2.97822 31.2894C2.67422 31.8174 2.52222 32.4094 2.52222 33.0654C2.52222 33.7214 2.67422 34.3134 2.97822 34.8414C3.29022 35.3694 3.71822 35.7854 4.26222 36.0894C4.80622 36.3934 5.41022 36.5454 6.07422 36.5454C7.08222 36.5454 7.91022 36.2094 8.55822 35.5374L9.12222 36.1014C8.75422 36.5014 8.30222 36.8094 7.76622 37.0254C7.23822 37.2334 6.66222 37.3374 6.03822 37.3374ZM13.134 37.3254C12.526 37.3254 11.978 37.1894 11.49 36.9174C11.002 36.6374 10.618 36.2534 10.338 35.7654C10.058 35.2774 9.91797 34.7254 9.91797 34.1094C9.91797 33.4934 10.058 32.9414 10.338 32.4534C10.618 31.9654 11.002 31.5854 11.49 31.3134C11.978 31.0414 12.526 30.9054 13.134 30.9054C13.742 30.9054 14.29 31.0414 14.778 31.3134C15.266 31.5854 15.646 31.9654 15.918 32.4534C16.198 32.9414 16.338 33.4934 16.338 34.1094C16.338 34.7254 16.198 35.2774 15.918 35.7654C15.646 36.2534 15.266 36.6374 14.778 36.9174C14.29 37.1894 13.742 37.3254 13.134 37.3254ZM13.134 36.5694C13.582 36.5694 13.982 36.4694 14.334 36.2694C14.694 36.0614 14.974 35.7694 15.174 35.3934C15.374 35.0174 15.474 34.5894 15.474 34.1094C15.474 33.6294 15.374 33.2014 15.174 32.8254C14.974 32.4494 14.694 32.1614 14.334 31.9614C13.982 31.7534 13.582 31.6494 13.134 31.6494C12.686 31.6494 12.282 31.7534 11.922 31.9614C11.57 32.1614 11.29 32.4494 11.082 32.8254C10.882 33.2014 10.782 33.6294 10.782 34.1094C10.782 34.5894 10.882 35.0174 11.082 35.3934C11.29 35.7694 11.57 36.0614 11.922 36.2694C12.282 36.4694 12.686 36.5694 13.134 36.5694ZM21.2934 30.9054C22.0854 30.9054 22.7134 31.1374 23.1774 31.6014C23.6494 32.0574 23.8854 32.7254 23.8854 33.6054V37.2654H23.0334V33.6894C23.0334 33.0334 22.8694 32.5334 22.5414 32.1894C22.2134 31.8454 21.7454 31.6734 21.1374 31.6734C20.4574 31.6734 19.9174 31.8774 19.5174 32.2854C19.1254 32.6854 18.9294 33.2414 18.9294 33.9534V37.2654H18.0774V30.9534H18.8934V32.1174C19.1254 31.7334 19.4454 31.4374 19.8534 31.2294C20.2694 31.0134 20.7494 30.9054 21.2934 30.9054ZM27.8905 37.3254C27.3785 37.3254 26.8865 37.2534 26.4145 37.1094C25.9505 36.9574 25.5865 36.7694 25.3225 36.5454L25.7065 35.8734C25.9705 36.0814 26.3025 36.2534 26.7025 36.3894C27.1025 36.5174 27.5185 36.5814 27.9505 36.5814C28.5265 36.5814 28.9505 36.4934 29.2225 36.3174C29.5025 36.1334 29.6425 35.8774 29.6425 35.5494C29.6425 35.3174 29.5665 35.1374 29.4145 35.0094C29.2625 34.8734 29.0705 34.7734 28.8385 34.7094C28.6065 34.6374 28.2985 34.5694 27.9145 34.5054C27.4025 34.4094 26.9905 34.3134 26.6785 34.2174C26.3665 34.1134 26.0985 33.9414 25.8745 33.7014C25.6585 33.4614 25.5505 33.1294 25.5505 32.7054C25.5505 32.1774 25.7705 31.7454 26.2105 31.4094C26.6505 31.0734 27.2625 30.9054 28.0465 30.9054C28.4545 30.9054 28.8625 30.9614 29.2705 31.0734C29.6785 31.1774 30.0145 31.3174 30.2785 31.4934L29.9065 32.1774C29.3865 31.8174 28.7665 31.6374 28.0465 31.6374C27.5025 31.6374 27.0905 31.7334 26.8105 31.9254C26.5385 32.1174 26.4025 32.3694 26.4025 32.6814C26.4025 32.9214 26.4785 33.1134 26.6305 33.2574C26.7905 33.4014 26.9865 33.5094 27.2185 33.5814C27.4505 33.6454 27.7705 33.7134 28.1785 33.7854C28.6825 33.8814 29.0865 33.9774 29.3905 34.0734C29.6945 34.1694 29.9545 34.3334 30.1705 34.5654C30.3865 34.7974 30.4945 35.1174 30.4945 35.5254C30.4945 36.0774 30.2625 36.5174 29.7985 36.8454C29.3425 37.1654 28.7065 37.3254 27.8905 37.3254ZM37.7576 30.9534V37.2654H36.9416V36.1134C36.7176 36.4974 36.4096 36.7974 36.0176 37.0134C35.6256 37.2214 35.1776 37.3254 34.6736 37.3254C33.8496 37.3254 33.1976 37.0974 32.7176 36.6414C32.2456 36.1774 32.0096 35.5014 32.0096 34.6134V30.9534H32.8616V34.5294C32.8616 35.1934 33.0256 35.6974 33.3536 36.0414C33.6816 36.3854 34.1496 36.5574 34.7576 36.5574C35.4216 36.5574 35.9456 36.3574 36.3296 35.9574C36.7136 35.5494 36.9056 34.9854 36.9056 34.2654V30.9534H37.7576ZM40.1438 28.3614H40.9958V37.2654H40.1438V28.3614ZM46.7139 36.8814C46.5539 37.0254 46.3539 37.1374 46.1139 37.2174C45.8819 37.2894 45.6379 37.3254 45.3819 37.3254C44.7899 37.3254 44.3339 37.1654 44.0139 36.8454C43.6939 36.5254 43.5339 36.0734 43.5339 35.4894V31.6734H42.4059V30.9534H43.5339V29.5734H44.3859V30.9534H46.3059V31.6734H44.3859V35.4414C44.3859 35.8174 44.4779 36.1054 44.6619 36.3054C44.8539 36.4974 45.1259 36.5934 45.4779 36.5934C45.6539 36.5934 45.8219 36.5654 45.9819 36.5094C46.1499 36.4534 46.2939 36.3734 46.4139 36.2694L46.7139 36.8814ZM50.4729 30.9054C51.2969 30.9054 51.9289 31.1134 52.3689 31.5294C52.8089 31.9374 53.0289 32.5454 53.0289 33.3534V37.2654H52.2129V36.2814C52.0209 36.6094 51.7369 36.8654 51.3609 37.0494C50.9929 37.2334 50.5529 37.3254 50.0409 37.3254C49.3369 37.3254 48.7769 37.1574 48.3609 36.8214C47.9449 36.4854 47.7369 36.0414 47.7369 35.4894C47.7369 34.9534 47.9289 34.5214 48.3129 34.1934C48.7049 33.8654 49.3249 33.7014 50.1729 33.7014H52.1769V33.3174C52.1769 32.7734 52.0249 32.3614 51.7209 32.0814C51.4169 31.7934 50.9729 31.6494 50.3889 31.6494C49.9889 31.6494 49.6049 31.7174 49.2369 31.8534C48.8689 31.9814 48.5529 32.1614 48.2889 32.3934L47.9049 31.7574C48.2249 31.4854 48.6089 31.2774 49.0569 31.1334C49.5049 30.9814 49.9769 30.9054 50.4729 30.9054ZM50.1729 36.6534C50.6529 36.6534 51.0649 36.5454 51.4089 36.3294C51.7529 36.1054 52.0089 35.7854 52.1769 35.3694V34.3374H50.1969C49.1169 34.3374 48.5769 34.7134 48.5769 35.4654C48.5769 35.8334 48.7169 36.1254 48.9969 36.3414C49.2769 36.5494 49.6689 36.6534 50.1729 36.6534ZM57.035 37.3254C56.523 37.3254 56.031 37.2534 55.559 37.1094C55.095 36.9574 54.731 36.7694 54.467 36.5454L54.851 35.8734C55.115 36.0814 55.447 36.2534 55.847 36.3894C56.247 36.5174 56.663 36.5814 57.095 36.5814C57.671 36.5814 58.095 36.4934 58.367 36.3174C58.647 36.1334 58.787 35.8774 58.787 35.5494C58.787 35.3174 58.711 35.1374 58.559 35.0094C58.407 34.8734 58.215 34.7734 57.983 34.7094C57.751 34.6374 57.443 34.5694 57.059 34.5054C56.547 34.4094 56.135 34.3134 55.823 34.2174C55.511 34.1134 55.243 33.9414 55.019 33.7014C54.803 33.4614 54.695 33.1294 54.695 32.7054C54.695 32.1774 54.915 31.7454 55.355 31.4094C55.795 31.0734 56.407 30.9054 57.191 30.9054C57.599 30.9054 58.007 30.9614 58.415 31.0734C58.823 31.1774 59.159 31.3174 59.423 31.4934L59.051 32.1774C58.531 31.8174 57.911 31.6374 57.191 31.6374C56.647 31.6374 56.235 31.7334 55.955 31.9254C55.683 32.1174 55.547 32.3694 55.547 32.6814C55.547 32.9214 55.623 33.1134 55.775 33.2574C55.935 33.4014 56.131 33.5094 56.363 33.5814C56.595 33.6454 56.915 33.7134 57.323 33.7854C57.827 33.8814 58.231 33.9774 58.535 34.0734C58.839 34.1694 59.099 34.3334 59.315 34.5654C59.531 34.7974 59.639 35.1174 59.639 35.5254C59.639 36.0774 59.407 36.5174 58.943 36.8454C58.487 37.1654 57.851 37.3254 57.035 37.3254Z" fill="#4894FF"/>
<path fill-rule="evenodd" clip-rule="evenodd" d="M23.5242 4.26541C22.9719 4.26541 22.5242 4.71313 22.5242 5.26541V19.2654C22.5242 19.8177 22.9719 20.2654 23.5242 20.2654H37.5242C38.0765 20.2654 38.5242 19.8177 38.5242 19.2654V5.26541C38.5242 4.71313 38.0765 4.26541 37.5242 4.26541H23.5242ZM20.5242 5.26541C20.5242 3.60856 21.8673 2.26541 23.5242 2.26541H37.5242C39.181 2.26541 40.5242 3.60856 40.5242 5.26541V19.2654C40.5242 20.9223 39.181 22.2654 37.5242 22.2654H23.5242C21.8673 22.2654 20.5242 20.9223 20.5242 19.2654V5.26541Z" fill="#4894FF"/>
<path fill-rule="evenodd" clip-rule="evenodd" d="M34.5242 0.265411C35.0765 0.265411 35.5242 0.713127 35.5242 1.26541V5.26541C35.5242 5.8177 35.0765 6.26541 34.5242 6.26541C33.9719 6.26541 33.5242 5.8177 33.5242 5.26541V1.26541C33.5242 0.713127 33.9719 0.265411 34.5242 0.265411Z" fill="#4894FF"/>
<path fill-rule="evenodd" clip-rule="evenodd" d="M26.5242 0.265411C27.0765 0.265411 27.5242 0.713127 27.5242 1.26541V5.26541C27.5242 5.8177 27.0765 6.26541 26.5242 6.26541C25.9719 6.26541 25.5242 5.8177 25.5242 5.26541V1.26541C25.5242 0.713127 25.9719 0.265411 26.5242 0.265411Z" fill="#4894FF"/>
<path fill-rule="evenodd" clip-rule="evenodd" d="M20.5242 9.26541C20.5242 8.71313 20.9719 8.26541 21.5242 8.26541H39.5242C40.0765 8.26541 40.5242 8.71313 40.5242 9.26541C40.5242 9.8177 40.0765 10.2654 39.5242 10.2654H21.5242C20.9719 10.2654 20.5242 9.8177 20.5242 9.26541Z" fill="#4894FF"/>
</svg>
