<svg width="25" height="21" viewBox="0 0 25 21" fill="none" xmlns="http://www.w3.org/2000/svg">
<path fill-rule="evenodd" clip-rule="evenodd" d="M1.98864 14.2635C2.92632 13.3258 4.19809 12.799 5.52417 12.799H13.5242C14.8503 12.799 16.122 13.3258 17.0597 14.2635C17.9974 15.2012 18.5242 16.4729 18.5242 17.799V19.799C18.5242 20.3513 18.0765 20.799 17.5242 20.799C16.9719 20.799 16.5242 20.3513 16.5242 19.799V17.799C16.5242 17.0034 16.2081 16.2403 15.6455 15.6777C15.0829 15.1151 14.3198 14.799 13.5242 14.799H5.52417C4.72852 14.799 3.96546 15.1151 3.40285 15.6777C2.84024 16.2403 2.52417 17.0034 2.52417 17.799V19.799C2.52417 20.3513 2.07645 20.799 1.52417 20.799C0.971885 20.799 0.52417 20.3513 0.52417 19.799V17.799C0.52417 16.4729 1.05095 15.2012 1.98864 14.2635Z" fill="#464646"/>
<path fill-rule="evenodd" clip-rule="evenodd" d="M9.52417 2.79901C7.86732 2.79901 6.52417 4.14216 6.52417 5.79901C6.52417 7.45587 7.86732 8.79901 9.52417 8.79901C11.181 8.79901 12.5242 7.45587 12.5242 5.79901C12.5242 4.14216 11.181 2.79901 9.52417 2.79901ZM4.52417 5.79901C4.52417 3.03759 6.76275 0.799011 9.52417 0.799011C12.2856 0.799011 14.5242 3.03759 14.5242 5.79901C14.5242 8.56044 12.2856 10.799 9.52417 10.799C6.76275 10.799 4.52417 8.56044 4.52417 5.79901Z" fill="#464646"/>
<path fill-rule="evenodd" clip-rule="evenodd" d="M19.5559 13.679C19.694 13.1443 20.2394 12.8227 20.7742 12.9608C21.8468 13.2377 22.7971 13.8631 23.4759 14.7387C24.1546 15.6142 24.5233 16.6904 24.5242 17.7983L24.5242 19.799C24.5242 20.3513 24.0765 20.799 23.5242 20.799C22.9719 20.799 22.5242 20.3513 22.5242 19.799L22.5242 17.7998C22.5242 17.7997 22.5242 17.7999 22.5242 17.7998C22.5236 17.1352 22.3024 16.4893 21.8952 15.964C21.488 15.4387 20.9178 15.0634 20.2742 14.8973C19.7394 14.7592 19.4179 14.2138 19.5559 13.679Z" fill="#464646"/>
<path fill-rule="evenodd" clip-rule="evenodd" d="M15.5554 1.68097C15.6924 1.14595 16.2372 0.823274 16.7722 0.960263C17.8477 1.23564 18.801 1.86114 19.4818 2.73815C20.1625 3.61516 20.532 4.6938 20.532 5.80401C20.532 6.91423 20.1625 7.99286 19.4818 8.86987C18.801 9.74689 17.8477 10.3724 16.7722 10.6478C16.2372 10.7848 15.6924 10.4621 15.5554 9.92705C15.4184 9.39202 15.7411 8.84725 16.2761 8.71026C16.9214 8.54504 17.4934 8.16974 17.9019 7.64353C18.3103 7.11732 18.532 6.47014 18.532 5.80401C18.532 5.13789 18.3103 4.4907 17.9019 3.9645C17.4934 3.43829 16.9214 3.06299 16.2761 2.89776C15.7411 2.76077 15.4184 2.216 15.5554 1.68097Z" fill="#464646"/>
</svg>
