<svg width="25" height="21" viewBox="0 0 25 21" fill="none" xmlns="http://www.w3.org/2000/svg">
<path fill-rule="evenodd" clip-rule="evenodd" d="M1.98864 13.7299C2.92632 12.7922 4.19809 12.2654 5.52417 12.2654H13.5242C14.8503 12.2654 16.122 12.7922 17.0597 13.7299C17.9974 14.6676 18.5242 15.9393 18.5242 17.2654V19.2654C18.5242 19.8177 18.0765 20.2654 17.5242 20.2654C16.9719 20.2654 16.5242 19.8177 16.5242 19.2654V17.2654C16.5242 16.4698 16.2081 15.7067 15.6455 15.1441C15.0829 14.5815 14.3198 14.2654 13.5242 14.2654H5.52417C4.72852 14.2654 3.96546 14.5815 3.40285 15.1441C2.84024 15.7067 2.52417 16.4698 2.52417 17.2654V19.2654C2.52417 19.8177 2.07645 20.2654 1.52417 20.2654C0.971885 20.2654 0.52417 19.8177 0.52417 19.2654V17.2654C0.52417 15.9393 1.05095 14.6676 1.98864 13.7299Z" fill="#4894FF"/>
<path fill-rule="evenodd" clip-rule="evenodd" d="M9.52417 2.26541C7.86732 2.26541 6.52417 3.60856 6.52417 5.26541C6.52417 6.92227 7.86732 8.26541 9.52417 8.26541C11.181 8.26541 12.5242 6.92227 12.5242 5.26541C12.5242 3.60856 11.181 2.26541 9.52417 2.26541ZM4.52417 5.26541C4.52417 2.50399 6.76275 0.265411 9.52417 0.265411C12.2856 0.265411 14.5242 2.50399 14.5242 5.26541C14.5242 8.02684 12.2856 10.2654 9.52417 10.2654C6.76275 10.2654 4.52417 8.02684 4.52417 5.26541Z" fill="#4894FF"/>
<path fill-rule="evenodd" clip-rule="evenodd" d="M19.5559 13.1454C19.694 12.6107 20.2394 12.2891 20.7742 12.4272C21.8468 12.7041 22.7971 13.3295 23.4759 14.2051C24.1546 15.0806 24.5233 16.1568 24.5242 17.2647L24.5242 19.2654C24.5242 19.8177 24.0765 20.2654 23.5242 20.2654C22.9719 20.2654 22.5242 19.8177 22.5242 19.2654L22.5242 17.2662C22.5242 17.2661 22.5242 17.2663 22.5242 17.2662C22.5236 16.6016 22.3024 15.9557 21.8952 15.4304C21.488 14.9051 20.9178 14.5298 20.2742 14.3637C19.7394 14.2256 19.4179 13.6802 19.5559 13.1454Z" fill="#4894FF"/>
<path fill-rule="evenodd" clip-rule="evenodd" d="M15.5554 1.14737C15.6924 0.612348 16.2372 0.289675 16.7722 0.426663C17.8477 0.702039 18.801 1.32754 19.4818 2.20455C20.1625 3.08156 20.532 4.1602 20.532 5.27041C20.532 6.38063 20.1625 7.45926 19.4818 8.33627C18.801 9.21329 17.8477 9.83879 16.7722 10.1142C16.2372 10.2512 15.6924 9.92848 15.5554 9.39345C15.4184 8.85843 15.7411 8.31365 16.2761 8.17666C16.9214 8.01144 17.4934 7.63614 17.9019 7.10993C18.3103 6.58372 18.532 5.93654 18.532 5.27041C18.532 4.60429 18.3103 3.9571 17.9019 3.4309C17.4934 2.90469 16.9214 2.52939 16.2761 2.36416C15.7411 2.22717 15.4184 1.6824 15.5554 1.14737Z" fill="#4894FF"/>
</svg>
