<svg width="50" height="42" viewBox="0 0 50 42" fill="none" xmlns="http://www.w3.org/2000/svg">
<g opacity="0.3">
<path d="M5.94056 36.3374C5.10856 36.3374 4.35656 36.1534 3.68456 35.7854C3.02056 35.4174 2.49656 34.9094 2.11256 34.2614C1.73656 33.6054 1.54856 32.8734 1.54856 32.0654C1.54856 31.2574 1.73656 30.5294 2.11256 29.8814C2.49656 29.2254 3.02456 28.7134 3.69656 28.3454C4.36856 27.9774 5.12056 27.7934 5.95256 27.7934C6.57656 27.7934 7.15256 27.8974 7.68056 28.1054C8.20856 28.3134 8.65656 28.6174 9.02456 29.0174L8.46056 29.5814C7.80456 28.9174 6.97656 28.5854 5.97656 28.5854C5.31256 28.5854 4.70856 28.7374 4.16456 29.0414C3.62056 29.3454 3.19256 29.7614 2.88056 30.2894C2.57656 30.8174 2.42456 31.4094 2.42456 32.0654C2.42456 32.7214 2.57656 33.3134 2.88056 33.8414C3.19256 34.3694 3.62056 34.7854 4.16456 35.0894C4.70856 35.3934 5.31256 35.5454 5.97656 35.5454C6.98456 35.5454 7.81256 35.2094 8.46056 34.5374L9.02456 35.1014C8.65656 35.5014 8.20456 35.8094 7.66856 36.0254C7.14056 36.2334 6.56456 36.3374 5.94056 36.3374ZM10.7376 27.3614H11.5896V36.2654H10.7376V27.3614ZM13.9602 29.9534H14.8122V36.2654H13.9602V29.9534ZM14.3922 28.5734C14.2162 28.5734 14.0682 28.5134 13.9482 28.3934C13.8282 28.2734 13.7682 28.1294 13.7682 27.9614C13.7682 27.8014 13.8282 27.6614 13.9482 27.5414C14.0682 27.4214 14.2162 27.3614 14.3922 27.3614C14.5682 27.3614 14.7162 27.4214 14.8362 27.5414C14.9562 27.6534 15.0162 27.7894 15.0162 27.9494C15.0162 28.1254 14.9562 28.2734 14.8362 28.3934C14.7162 28.5134 14.5682 28.5734 14.3922 28.5734ZM22.6789 33.3734H17.3989C17.4469 34.0294 17.6989 34.5614 18.1549 34.9694C18.6109 35.3694 19.1869 35.5694 19.8829 35.5694C20.2749 35.5694 20.6349 35.5014 20.9629 35.3654C21.2909 35.2214 21.5749 35.0134 21.8149 34.7414L22.2949 35.2934C22.0149 35.6294 21.6629 35.8854 21.2389 36.0614C20.8229 36.2374 20.3629 36.3254 19.8589 36.3254C19.2109 36.3254 18.6349 36.1894 18.1309 35.9174C17.6349 35.6374 17.2469 35.2534 16.9669 34.7654C16.6869 34.2774 16.5469 33.7254 16.5469 33.1094C16.5469 32.4934 16.6789 31.9414 16.9429 31.4534C17.2149 30.9654 17.5829 30.5854 18.0469 30.3134C18.5189 30.0414 19.0469 29.9054 19.6309 29.9054C20.2149 29.9054 20.7389 30.0414 21.2029 30.3134C21.6669 30.5854 22.0309 30.9654 22.2949 31.4534C22.5589 31.9334 22.6909 32.4854 22.6909 33.1094L22.6789 33.3734ZM19.6309 30.6374C19.0229 30.6374 18.5109 30.8334 18.0949 31.2254C17.6869 31.6094 17.4549 32.1134 17.3989 32.7374H21.8749C21.8189 32.1134 21.5829 31.6094 21.1669 31.2254C20.7589 30.8334 20.2469 30.6374 19.6309 30.6374ZM27.6411 29.9054C28.4331 29.9054 29.0611 30.1374 29.5251 30.6014C29.9971 31.0574 30.2331 31.7254 30.2331 32.6054V36.2654H29.3811V32.6894C29.3811 32.0334 29.2171 31.5334 28.8891 31.1894C28.5611 30.8454 28.0931 30.6734 27.4851 30.6734C26.8051 30.6734 26.2651 30.8774 25.8651 31.2854C25.4731 31.6854 25.2771 32.2414 25.2771 32.9534V36.2654H24.4251V29.9534H25.2411V31.1174C25.4731 30.7334 25.7931 30.4374 26.2011 30.2294C26.6171 30.0134 27.0971 29.9054 27.6411 29.9054ZM35.8702 35.8814C35.7102 36.0254 35.5102 36.1374 35.2702 36.2174C35.0382 36.2894 34.7942 36.3254 34.5382 36.3254C33.9462 36.3254 33.4902 36.1654 33.1702 35.8454C32.8502 35.5254 32.6902 35.0734 32.6902 34.4894V30.6734H31.5622V29.9534H32.6902V28.5734H33.5422V29.9534H35.4622V30.6734H33.5422V34.4414C33.5422 34.8174 33.6342 35.1054 33.8182 35.3054C34.0102 35.4974 34.2822 35.5934 34.6342 35.5934C34.8102 35.5934 34.9782 35.5654 35.1382 35.5094C35.3062 35.4534 35.4502 35.3734 35.5702 35.2694L35.8702 35.8814ZM42.6945 33.3734H37.4145C37.4625 34.0294 37.7145 34.5614 38.1705 34.9694C38.6265 35.3694 39.2025 35.5694 39.8985 35.5694C40.2905 35.5694 40.6505 35.5014 40.9785 35.3654C41.3065 35.2214 41.5905 35.0134 41.8305 34.7414L42.3105 35.2934C42.0305 35.6294 41.6785 35.8854 41.2545 36.0614C40.8385 36.2374 40.3785 36.3254 39.8745 36.3254C39.2265 36.3254 38.6505 36.1894 38.1465 35.9174C37.6505 35.6374 37.2625 35.2534 36.9825 34.7654C36.7025 34.2774 36.5625 33.7254 36.5625 33.1094C36.5625 32.4934 36.6945 31.9414 36.9585 31.4534C37.2305 30.9654 37.5985 30.5854 38.0625 30.3134C38.5345 30.0414 39.0625 29.9054 39.6465 29.9054C40.2305 29.9054 40.7545 30.0414 41.2185 30.3134C41.6825 30.5854 42.0465 30.9654 42.3105 31.4534C42.5745 31.9334 42.7065 32.4854 42.7065 33.1094L42.6945 33.3734ZM39.6465 30.6374C39.0385 30.6374 38.5265 30.8334 38.1105 31.2254C37.7025 31.6094 37.4705 32.1134 37.4145 32.7374H41.8905C41.8345 32.1134 41.5985 31.6094 41.1825 31.2254C40.7745 30.8334 40.2625 30.6374 39.6465 30.6374ZM46.1327 36.3254C45.6207 36.3254 45.1287 36.2534 44.6567 36.1094C44.1927 35.9574 43.8287 35.7694 43.5647 35.5454L43.9487 34.8734C44.2127 35.0814 44.5447 35.2534 44.9447 35.3894C45.3447 35.5174 45.7607 35.5814 46.1927 35.5814C46.7687 35.5814 47.1927 35.4934 47.4647 35.3174C47.7447 35.1334 47.8847 34.8774 47.8847 34.5494C47.8847 34.3174 47.8087 34.1374 47.6567 34.0094C47.5047 33.8734 47.3127 33.7734 47.0807 33.7094C46.8487 33.6374 46.5407 33.5694 46.1567 33.5054C45.6447 33.4094 45.2327 33.3134 44.9207 33.2174C44.6087 33.1134 44.3407 32.9414 44.1167 32.7014C43.9007 32.4614 43.7927 32.1294 43.7927 31.7054C43.7927 31.1774 44.0127 30.7454 44.4527 30.4094C44.8927 30.0734 45.5047 29.9054 46.2887 29.9054C46.6967 29.9054 47.1047 29.9614 47.5127 30.0734C47.9207 30.1774 48.2567 30.3174 48.5207 30.4934L48.1487 31.1774C47.6287 30.8174 47.0087 30.6374 46.2887 30.6374C45.7447 30.6374 45.3327 30.7334 45.0527 30.9254C44.7807 31.1174 44.6447 31.3694 44.6447 31.6814C44.6447 31.9214 44.7207 32.1134 44.8727 32.2574C45.0327 32.4014 45.2287 32.5094 45.4607 32.5814C45.6927 32.6454 46.0127 32.7134 46.4207 32.7854C46.9247 32.8814 47.3287 32.9774 47.6327 33.0734C47.9367 33.1694 48.1967 33.3334 48.4127 33.5654C48.6287 33.7974 48.7367 34.1174 48.7367 34.5254C48.7367 35.0774 48.5047 35.5174 48.0407 35.8454C47.5847 36.1654 46.9487 36.3254 46.1327 36.3254Z" fill="#464646"/>
<path fill-rule="evenodd" clip-rule="evenodd" d="M13.9886 13.7299C14.9263 12.7922 16.1981 12.2654 17.5242 12.2654H25.5242C26.8503 12.2654 28.122 12.7922 29.0597 13.7299C29.9974 14.6676 30.5242 15.9393 30.5242 17.2654V19.2654C30.5242 19.8177 30.0765 20.2654 29.5242 20.2654C28.9719 20.2654 28.5242 19.8177 28.5242 19.2654V17.2654C28.5242 16.4698 28.2081 15.7067 27.6455 15.1441C27.0829 14.5815 26.3198 14.2654 25.5242 14.2654H17.5242C16.7285 14.2654 15.9655 14.5815 15.4028 15.1441C14.8402 15.7067 14.5242 16.4698 14.5242 17.2654V19.2654C14.5242 19.8177 14.0765 20.2654 13.5242 20.2654C12.9719 20.2654 12.5242 19.8177 12.5242 19.2654V17.2654C12.5242 15.9393 13.051 14.6676 13.9886 13.7299Z" fill="#464646"/>
<path fill-rule="evenodd" clip-rule="evenodd" d="M21.5242 2.26541C19.8673 2.26541 18.5242 3.60856 18.5242 5.26541C18.5242 6.92227 19.8673 8.26541 21.5242 8.26541C23.181 8.26541 24.5242 6.92227 24.5242 5.26541C24.5242 3.60856 23.181 2.26541 21.5242 2.26541ZM16.5242 5.26541C16.5242 2.50399 18.7627 0.265411 21.5242 0.265411C24.2856 0.265411 26.5242 2.50399 26.5242 5.26541C26.5242 8.02684 24.2856 10.2654 21.5242 10.2654C18.7627 10.2654 16.5242 8.02684 16.5242 5.26541Z" fill="#464646"/>
<path fill-rule="evenodd" clip-rule="evenodd" d="M31.5559 13.1454C31.694 12.6107 32.2394 12.2891 32.7742 12.4272C33.8468 12.7041 34.7971 13.3295 35.4759 14.2051C36.1546 15.0806 36.5233 16.1568 36.5242 17.2647L36.5242 19.2654C36.5242 19.8177 36.0765 20.2654 35.5242 20.2654C34.9719 20.2654 34.5242 19.8177 34.5242 19.2654L34.5242 17.2662C34.5242 17.2661 34.5242 17.2663 34.5242 17.2662C34.5236 16.6016 34.3024 15.9557 33.8952 15.4304C33.488 14.9051 32.9178 14.5298 32.2742 14.3637C31.7394 14.2256 31.4179 13.6802 31.5559 13.1454Z" fill="#464646"/>
<path fill-rule="evenodd" clip-rule="evenodd" d="M27.5554 1.14737C27.6924 0.612348 28.2372 0.289675 28.7722 0.426663C29.8477 0.702039 30.801 1.32754 31.4818 2.20455C32.1625 3.08156 32.532 4.1602 32.532 5.27041C32.532 6.38063 32.1625 7.45926 31.4818 8.33627C30.801 9.21329 29.8477 9.83879 28.7722 10.1142C28.2372 10.2512 27.6924 9.92848 27.5554 9.39345C27.4184 8.85843 27.7411 8.31365 28.2761 8.17666C28.9214 8.01144 29.4934 7.63614 29.9019 7.10993C30.3103 6.58372 30.532 5.93654 30.532 5.27041C30.532 4.60429 30.3103 3.9571 29.9019 3.4309C29.4934 2.90469 28.9214 2.52939 28.2761 2.36416C27.7411 2.22717 27.4184 1.6824 27.5554 1.14737Z" fill="#464646"/>
</g>
</svg>
