<svg width="50" height="42" viewBox="0 0 50 42" fill="none" xmlns="http://www.w3.org/2000/svg">
<path d="M5.95228 36.3374C5.32028 36.3374 4.73628 36.2334 4.20028 36.0254C3.66428 35.8094 3.20028 35.5094 2.80828 35.1254C2.41628 34.7414 2.10828 34.2894 1.88428 33.7694C1.66828 33.2494 1.56028 32.6814 1.56028 32.0654C1.56028 31.4494 1.66828 30.8814 1.88428 30.3614C2.10828 29.8414 2.41628 29.3894 2.80828 29.0054C3.20828 28.6214 3.67628 28.3254 4.21228 28.1174C4.74828 27.9014 5.33228 27.7934 5.96428 27.7934C6.57228 27.7934 7.14428 27.8974 7.68028 28.1054C8.21628 28.3054 8.66828 28.6094 9.03628 29.0174L8.47228 29.5814C8.12828 29.2294 7.74828 28.9774 7.33228 28.8254C6.91628 28.6654 6.46828 28.5854 5.98828 28.5854C5.48428 28.5854 5.01628 28.6734 4.58428 28.8494C4.15228 29.0174 3.77628 29.2614 3.45628 29.5814C3.13628 29.8934 2.88428 30.2614 2.70028 30.6854C2.52428 31.1014 2.43628 31.5614 2.43628 32.0654C2.43628 32.5694 2.52428 33.0334 2.70028 33.4574C2.88428 33.8734 3.13628 34.2414 3.45628 34.5614C3.77628 34.8734 4.15228 35.1174 4.58428 35.2934C5.01628 35.4614 5.48428 35.5454 5.98828 35.5454C6.46828 35.5454 6.91628 35.4654 7.33228 35.3054C7.74828 35.1454 8.12828 34.8894 8.47228 34.5374L9.03628 35.1014C8.66828 35.5094 8.21628 35.8174 7.68028 36.0254C7.14428 36.2334 6.56828 36.3374 5.95228 36.3374ZM10.7493 36.2654V27.3614H11.6013V36.2654H10.7493ZM13.9719 36.2654V29.9654H14.8239V36.2654H13.9719ZM14.4039 28.5734C14.2279 28.5734 14.0799 28.5134 13.9599 28.3934C13.8399 28.2734 13.7799 28.1294 13.7799 27.9614C13.7799 27.7934 13.8399 27.6534 13.9599 27.5414C14.0799 27.4214 14.2279 27.3614 14.4039 27.3614C14.5799 27.3614 14.7279 27.4174 14.8479 27.5294C14.9679 27.6414 15.0279 27.7814 15.0279 27.9494C15.0279 28.1254 14.9679 28.2734 14.8479 28.3934C14.7359 28.5134 14.5879 28.5734 14.4039 28.5734ZM19.8706 36.3254C19.2146 36.3254 18.6386 36.1894 18.1426 35.9174C17.6466 35.6374 17.2586 35.2574 16.9786 34.7774C16.6986 34.2894 16.5586 33.7334 16.5586 33.1094C16.5586 32.4854 16.6906 31.9334 16.9546 31.4534C17.2266 30.9734 17.5946 30.5974 18.0586 30.3254C18.5306 30.0454 19.0586 29.9054 19.6426 29.9054C20.2346 29.9054 20.7586 30.0414 21.2146 30.3134C21.6786 30.5774 22.0426 30.9534 22.3066 31.4414C22.5706 31.9214 22.7026 32.4774 22.7026 33.1094C22.7026 33.1494 22.6986 33.1934 22.6906 33.2414C22.6906 33.2814 22.6906 33.3254 22.6906 33.3734H17.2066V32.7374H22.2346L21.8986 32.9894C21.8986 32.5334 21.7986 32.1294 21.5986 31.7774C21.4066 31.4174 21.1426 31.1374 20.8066 30.9374C20.4706 30.7374 20.0826 30.6374 19.6426 30.6374C19.2106 30.6374 18.8226 30.7374 18.4786 30.9374C18.1346 31.1374 17.8666 31.4174 17.6746 31.7774C17.4826 32.1374 17.3866 32.5494 17.3866 33.0134V33.1454C17.3866 33.6254 17.4906 34.0494 17.6986 34.4174C17.9146 34.7774 18.2106 35.0614 18.5866 35.2694C18.9706 35.4694 19.4066 35.5694 19.8946 35.5694C20.2786 35.5694 20.6346 35.5014 20.9626 35.3654C21.2986 35.2294 21.5866 35.0214 21.8266 34.7414L22.3066 35.2934C22.0266 35.6294 21.6746 35.8854 21.2506 36.0614C20.8346 36.2374 20.3746 36.3254 19.8706 36.3254ZM27.6528 29.9054C28.1648 29.9054 28.6128 30.0054 28.9968 30.2054C29.3888 30.3974 29.6928 30.6934 29.9088 31.0934C30.1328 31.4934 30.2448 31.9974 30.2448 32.6054V36.2654H29.3928V32.6894C29.3928 32.0254 29.2248 31.5254 28.8888 31.1894C28.5608 30.8454 28.0968 30.6734 27.4968 30.6734C27.0488 30.6734 26.6568 30.7654 26.3208 30.9494C25.9928 31.1254 25.7368 31.3854 25.5528 31.7294C25.3768 32.0654 25.2888 32.4734 25.2888 32.9534V36.2654H24.4368V29.9654H25.2528V31.6934L25.1208 31.3694C25.3208 30.9134 25.6408 30.5574 26.0808 30.3014C26.5208 30.0374 27.0448 29.9054 27.6528 29.9054ZM34.5382 36.3254C33.9462 36.3254 33.4902 36.1654 33.1702 35.8454C32.8502 35.5254 32.6902 35.0734 32.6902 34.4894V28.5734H33.5422V34.4414C33.5422 34.8094 33.6342 35.0934 33.8182 35.2934C34.0102 35.4934 34.2822 35.5934 34.6342 35.5934C35.0102 35.5934 35.3222 35.4854 35.5702 35.2694L35.8702 35.8814C35.7022 36.0334 35.4982 36.1454 35.2582 36.2174C35.0262 36.2894 34.7862 36.3254 34.5382 36.3254ZM31.5622 30.6734V29.9654H35.4622V30.6734H31.5622ZM39.8745 36.3254C39.2185 36.3254 38.6425 36.1894 38.1465 35.9174C37.6505 35.6374 37.2625 35.2574 36.9825 34.7774C36.7025 34.2894 36.5625 33.7334 36.5625 33.1094C36.5625 32.4854 36.6945 31.9334 36.9585 31.4534C37.2305 30.9734 37.5985 30.5974 38.0625 30.3254C38.5345 30.0454 39.0625 29.9054 39.6465 29.9054C40.2385 29.9054 40.7625 30.0414 41.2185 30.3134C41.6825 30.5774 42.0465 30.9534 42.3105 31.4414C42.5745 31.9214 42.7065 32.4774 42.7065 33.1094C42.7065 33.1494 42.7025 33.1934 42.6945 33.2414C42.6945 33.2814 42.6945 33.3254 42.6945 33.3734H37.2105V32.7374H42.2385L41.9025 32.9894C41.9025 32.5334 41.8025 32.1294 41.6025 31.7774C41.4105 31.4174 41.1465 31.1374 40.8105 30.9374C40.4745 30.7374 40.0865 30.6374 39.6465 30.6374C39.2145 30.6374 38.8265 30.7374 38.4825 30.9374C38.1385 31.1374 37.8705 31.4174 37.6785 31.7774C37.4865 32.1374 37.3905 32.5494 37.3905 33.0134V33.1454C37.3905 33.6254 37.4945 34.0494 37.7025 34.4174C37.9185 34.7774 38.2145 35.0614 38.5905 35.2694C38.9745 35.4694 39.4105 35.5694 39.8985 35.5694C40.2825 35.5694 40.6385 35.5014 40.9665 35.3654C41.3025 35.2294 41.5905 35.0214 41.8305 34.7414L42.3105 35.2934C42.0305 35.6294 41.6785 35.8854 41.2545 36.0614C40.8385 36.2374 40.3785 36.3254 39.8745 36.3254ZM46.1327 36.3254C45.6127 36.3254 45.1207 36.2534 44.6567 36.1094C44.1927 35.9574 43.8287 35.7694 43.5647 35.5454L43.9487 34.8734C44.2047 35.0654 44.5327 35.2334 44.9327 35.3774C45.3327 35.5134 45.7527 35.5814 46.1927 35.5814C46.7927 35.5814 47.2247 35.4894 47.4887 35.3054C47.7527 35.1134 47.8847 34.8614 47.8847 34.5494C47.8847 34.3174 47.8087 34.1374 47.6567 34.0094C47.5127 33.8734 47.3207 33.7734 47.0807 33.7094C46.8407 33.6374 46.5727 33.5774 46.2767 33.5294C45.9807 33.4814 45.6847 33.4254 45.3887 33.3614C45.1007 33.2974 44.8367 33.2054 44.5967 33.0854C44.3567 32.9574 44.1607 32.7854 44.0087 32.5694C43.8647 32.3534 43.7927 32.0654 43.7927 31.7054C43.7927 31.3614 43.8887 31.0534 44.0807 30.7814C44.2727 30.5094 44.5527 30.2974 44.9207 30.1454C45.2967 29.9854 45.7527 29.9054 46.2887 29.9054C46.6967 29.9054 47.1047 29.9614 47.5127 30.0734C47.9207 30.1774 48.2567 30.3174 48.5207 30.4934L48.1487 31.1774C47.8687 30.9854 47.5687 30.8494 47.2487 30.7694C46.9287 30.6814 46.6087 30.6374 46.2887 30.6374C45.7207 30.6374 45.3007 30.7374 45.0287 30.9374C44.7647 31.1294 44.6327 31.3774 44.6327 31.6814C44.6327 31.9214 44.7047 32.1094 44.8487 32.2454C45.0007 32.3814 45.1967 32.4894 45.4367 32.5694C45.6847 32.6414 45.9527 32.7014 46.2407 32.7494C46.5367 32.7974 46.8287 32.8574 47.1167 32.9294C47.4127 32.9934 47.6807 33.0854 47.9207 33.2054C48.1687 33.3174 48.3647 33.4814 48.5087 33.6974C48.6607 33.9054 48.7367 34.1814 48.7367 34.5254C48.7367 34.8934 48.6327 35.2134 48.4247 35.4854C48.2247 35.7494 47.9287 35.9574 47.5367 36.1094C47.1527 36.2534 46.6847 36.3254 46.1327 36.3254Z" fill="#4894FF"/>
<path fill-rule="evenodd" clip-rule="evenodd" d="M13.9886 13.7299C14.9263 12.7922 16.1981 12.2654 17.5242 12.2654H25.5242C26.8503 12.2654 28.122 12.7922 29.0597 13.7299C29.9974 14.6676 30.5242 15.9393 30.5242 17.2654V19.2654C30.5242 19.8177 30.0765 20.2654 29.5242 20.2654C28.9719 20.2654 28.5242 19.8177 28.5242 19.2654V17.2654C28.5242 16.4698 28.2081 15.7067 27.6455 15.1441C27.0829 14.5815 26.3198 14.2654 25.5242 14.2654H17.5242C16.7285 14.2654 15.9655 14.5815 15.4028 15.1441C14.8402 15.7067 14.5242 16.4698 14.5242 17.2654V19.2654C14.5242 19.8177 14.0765 20.2654 13.5242 20.2654C12.9719 20.2654 12.5242 19.8177 12.5242 19.2654V17.2654C12.5242 15.9393 13.051 14.6676 13.9886 13.7299Z" fill="#4894FF"/>
<path fill-rule="evenodd" clip-rule="evenodd" d="M21.5242 2.26541C19.8673 2.26541 18.5242 3.60856 18.5242 5.26541C18.5242 6.92227 19.8673 8.26541 21.5242 8.26541C23.181 8.26541 24.5242 6.92227 24.5242 5.26541C24.5242 3.60856 23.181 2.26541 21.5242 2.26541ZM16.5242 5.26541C16.5242 2.50399 18.7627 0.265411 21.5242 0.265411C24.2856 0.265411 26.5242 2.50399 26.5242 5.26541C26.5242 8.02684 24.2856 10.2654 21.5242 10.2654C18.7627 10.2654 16.5242 8.02684 16.5242 5.26541Z" fill="#4894FF"/>
<path fill-rule="evenodd" clip-rule="evenodd" d="M31.5559 13.1454C31.694 12.6107 32.2394 12.2891 32.7742 12.4272C33.8468 12.7041 34.7971 13.3295 35.4759 14.2051C36.1546 15.0806 36.5233 16.1568 36.5242 17.2647L36.5242 19.2654C36.5242 19.8177 36.0765 20.2654 35.5242 20.2654C34.9719 20.2654 34.5242 19.8177 34.5242 19.2654L34.5242 17.2662C34.5242 17.2661 34.5242 17.2663 34.5242 17.2662C34.5236 16.6016 34.3024 15.9557 33.8952 15.4304C33.488 14.9051 32.9178 14.5298 32.2742 14.3637C31.7394 14.2256 31.4179 13.6802 31.5559 13.1454Z" fill="#4894FF"/>
<path fill-rule="evenodd" clip-rule="evenodd" d="M27.5554 1.14737C27.6924 0.612348 28.2372 0.289675 28.7722 0.426663C29.8477 0.702039 30.801 1.32754 31.4818 2.20455C32.1625 3.08156 32.532 4.1602 32.532 5.27041C32.532 6.38063 32.1625 7.45926 31.4818 8.33627C30.801 9.21329 29.8477 9.83879 28.7722 10.1142C28.2372 10.2512 27.6924 9.92848 27.5554 9.39345C27.4184 8.85843 27.7411 8.31365 28.2761 8.17666C28.9214 8.01144 29.4934 7.63614 29.9019 7.10993C30.3103 6.58372 30.532 5.93654 30.532 5.27041C30.532 4.60429 30.3103 3.9571 29.9019 3.4309C29.4934 2.90469 28.9214 2.52939 28.2761 2.36416C27.7411 2.22717 27.4184 1.6824 27.5554 1.14737Z" fill="#4894FF"/>
</svg>
