<svg width="36" height="39" viewBox="0 0 36 39" fill="none" xmlns="http://www.w3.org/2000/svg">
<g opacity="0.3">
<path d="M10.667 24.8654V33.2654H9.81495V26.5454L6.51495 32.1974H6.09495L2.79495 26.5814V33.2654H1.94295V24.8654H2.67495L6.32295 31.0934L9.93495 24.8654H10.667ZM18.7199 30.3734H13.4399C13.4879 31.0294 13.7399 31.5614 14.1959 31.9694C14.6519 32.3694 15.2279 32.5694 15.9239 32.5694C16.3159 32.5694 16.6759 32.5014 17.0039 32.3654C17.3319 32.2214 17.6159 32.0134 17.8559 31.7414L18.3359 32.2934C18.0559 32.6294 17.7039 32.8854 17.2799 33.0614C16.8639 33.2374 16.4039 33.3254 15.8999 33.3254C15.2519 33.3254 14.6759 33.1894 14.1719 32.9174C13.6759 32.6374 13.2879 32.2534 13.0079 31.7654C12.7279 31.2774 12.5879 30.7254 12.5879 30.1094C12.5879 29.4934 12.7199 28.9414 12.9839 28.4534C13.2559 27.9654 13.6239 27.5854 14.0879 27.3134C14.5599 27.0414 15.0879 26.9054 15.6719 26.9054C16.2559 26.9054 16.7799 27.0414 17.2439 27.3134C17.7079 27.5854 18.0719 27.9654 18.3359 28.4534C18.5999 28.9334 18.7319 29.4854 18.7319 30.1094L18.7199 30.3734ZM15.6719 27.6374C15.0639 27.6374 14.5519 27.8334 14.1359 28.2254C13.7279 28.6094 13.4959 29.1134 13.4399 29.7374H17.9159C17.8599 29.1134 17.6239 28.6094 17.2079 28.2254C16.7999 27.8334 16.2879 27.6374 15.6719 27.6374ZM23.6821 26.9054C24.4741 26.9054 25.1021 27.1374 25.5661 27.6014C26.0381 28.0574 26.2741 28.7254 26.2741 29.6054V33.2654H25.4221V29.6894C25.4221 29.0334 25.2581 28.5334 24.9301 28.1894C24.6021 27.8454 24.1341 27.6734 23.5261 27.6734C22.8461 27.6734 22.3061 27.8774 21.9061 28.2854C21.5141 28.6854 21.3181 29.2414 21.3181 29.9534V33.2654H20.4661V26.9534H21.2821V28.1174C21.5141 27.7334 21.8341 27.4374 22.2421 27.2294C22.6581 27.0134 23.1381 26.9054 23.6821 26.9054ZM34.2752 26.9534V33.2654H33.4592V32.1134C33.2352 32.4974 32.9272 32.7974 32.5352 33.0134C32.1432 33.2214 31.6952 33.3254 31.1912 33.3254C30.3672 33.3254 29.7152 33.0974 29.2352 32.6414C28.7632 32.1774 28.5272 31.5014 28.5272 30.6134V26.9534H29.3792V30.5294C29.3792 31.1934 29.5432 31.6974 29.8712 32.0414C30.1992 32.3854 30.6672 32.5574 31.2752 32.5574C31.9392 32.5574 32.4632 32.3574 32.8472 31.9574C33.2312 31.5494 33.4232 30.9854 33.4232 30.2654V26.9534H34.2752Z" fill="#464646"/>
<path fill-rule="evenodd" clip-rule="evenodd" d="M7.52417 7.26541C7.52417 6.71313 7.97189 6.26541 8.52417 6.26541H26.5242C27.0765 6.26541 27.5242 6.71313 27.5242 7.26541C27.5242 7.8177 27.0765 8.26541 26.5242 8.26541H8.52417C7.97189 8.26541 7.52417 7.8177 7.52417 7.26541Z" fill="#464646"/>
<path fill-rule="evenodd" clip-rule="evenodd" d="M7.52417 1.26541C7.52417 0.713127 7.97189 0.265411 8.52417 0.265411H26.5242C27.0765 0.265411 27.5242 0.713127 27.5242 1.26541C27.5242 1.8177 27.0765 2.26541 26.5242 2.26541H8.52417C7.97189 2.26541 7.52417 1.8177 7.52417 1.26541Z" fill="#464646"/>
<path fill-rule="evenodd" clip-rule="evenodd" d="M7.52417 13.2654C7.52417 12.7131 7.97189 12.2654 8.52417 12.2654H26.5242C27.0765 12.2654 27.5242 12.7131 27.5242 13.2654C27.5242 13.8177 27.0765 14.2654 26.5242 14.2654H8.52417C7.97189 14.2654 7.52417 13.8177 7.52417 13.2654Z" fill="#464646"/>
</g>
</svg>
