<svg width="36" height="39" viewBox="0 0 36 39" fill="none" xmlns="http://www.w3.org/2000/svg">
<path d="M1.95467 33.2654V24.8654H2.68667L6.52667 31.4174H6.14267L9.94667 24.8654H10.6787V33.2654H9.82667V26.1974H10.0307L6.52667 32.1974H6.10667L2.57867 26.1974H2.80667V33.2654H1.95467ZM15.9116 33.3254C15.2556 33.3254 14.6796 33.1894 14.1836 32.9174C13.6876 32.6374 13.2996 32.2574 13.0196 31.7774C12.7396 31.2894 12.5996 30.7334 12.5996 30.1094C12.5996 29.4854 12.7316 28.9334 12.9956 28.4534C13.2676 27.9734 13.6356 27.5974 14.0996 27.3254C14.5716 27.0454 15.0996 26.9054 15.6836 26.9054C16.2756 26.9054 16.7996 27.0414 17.2556 27.3134C17.7196 27.5774 18.0836 27.9534 18.3476 28.4414C18.6116 28.9214 18.7436 29.4774 18.7436 30.1094C18.7436 30.1494 18.7396 30.1934 18.7316 30.2414C18.7316 30.2814 18.7316 30.3254 18.7316 30.3734H13.2476V29.7374H18.2756L17.9396 29.9894C17.9396 29.5334 17.8396 29.1294 17.6396 28.7774C17.4476 28.4174 17.1836 28.1374 16.8476 27.9374C16.5116 27.7374 16.1236 27.6374 15.6836 27.6374C15.2516 27.6374 14.8636 27.7374 14.5196 27.9374C14.1756 28.1374 13.9076 28.4174 13.7156 28.7774C13.5236 29.1374 13.4276 29.5494 13.4276 30.0134V30.1454C13.4276 30.6254 13.5316 31.0494 13.7396 31.4174C13.9556 31.7774 14.2516 32.0614 14.6276 32.2694C15.0116 32.4694 15.4476 32.5694 15.9356 32.5694C16.3196 32.5694 16.6756 32.5014 17.0036 32.3654C17.3396 32.2294 17.6276 32.0214 17.8676 31.7414L18.3476 32.2934C18.0676 32.6294 17.7156 32.8854 17.2916 33.0614C16.8756 33.2374 16.4156 33.3254 15.9116 33.3254ZM23.6938 26.9054C24.2058 26.9054 24.6538 27.0054 25.0378 27.2054C25.4298 27.3974 25.7338 27.6934 25.9498 28.0934C26.1738 28.4934 26.2858 28.9974 26.2858 29.6054V33.2654H25.4338V29.6894C25.4338 29.0254 25.2658 28.5254 24.9298 28.1894C24.6018 27.8454 24.1378 27.6734 23.5378 27.6734C23.0898 27.6734 22.6978 27.7654 22.3618 27.9494C22.0338 28.1254 21.7778 28.3854 21.5938 28.7294C21.4178 29.0654 21.3298 29.4734 21.3298 29.9534V33.2654H20.4778V26.9654H21.2938V28.6934L21.1618 28.3694C21.3618 27.9134 21.6818 27.5574 22.1218 27.3014C22.5618 27.0374 23.0858 26.9054 23.6938 26.9054ZM31.1912 33.3254C30.6552 33.3254 30.1872 33.2254 29.7872 33.0254C29.3872 32.8254 29.0752 32.5254 28.8512 32.1254C28.6352 31.7254 28.5272 31.2254 28.5272 30.6254V26.9654H29.3792V30.5294C29.3792 31.2014 29.5432 31.7094 29.8712 32.0534C30.2072 32.3894 30.6752 32.5574 31.2752 32.5574C31.7152 32.5574 32.0952 32.4694 32.4152 32.2934C32.7432 32.1094 32.9912 31.8454 33.1592 31.5014C33.3352 31.1574 33.4232 30.7454 33.4232 30.2654V26.9654H34.2752V33.2654H33.4592V31.5374L33.5912 31.8494C33.3912 32.3134 33.0792 32.6774 32.6552 32.9414C32.2392 33.1974 31.7512 33.3254 31.1912 33.3254Z" fill="#4894FF"/>
<path fill-rule="evenodd" clip-rule="evenodd" d="M7.52417 7.26541C7.52417 6.71313 7.97189 6.26541 8.52417 6.26541H26.5242C27.0765 6.26541 27.5242 6.71313 27.5242 7.26541C27.5242 7.8177 27.0765 8.26541 26.5242 8.26541H8.52417C7.97189 8.26541 7.52417 7.8177 7.52417 7.26541Z" fill="#4894FF"/>
<path fill-rule="evenodd" clip-rule="evenodd" d="M7.52417 1.26541C7.52417 0.713127 7.97189 0.265411 8.52417 0.265411H26.5242C27.0765 0.265411 27.5242 0.713127 27.5242 1.26541C27.5242 1.8177 27.0765 2.26541 26.5242 2.26541H8.52417C7.97189 2.26541 7.52417 1.8177 7.52417 1.26541Z" fill="#4894FF"/>
<path fill-rule="evenodd" clip-rule="evenodd" d="M7.52417 13.2654C7.52417 12.7131 7.97189 12.2654 8.52417 12.2654H26.5242C27.0765 12.2654 27.5242 12.7131 27.5242 13.2654C27.5242 13.8177 27.0765 14.2654 26.5242 14.2654H8.52417C7.97189 14.2654 7.52417 13.8177 7.52417 13.2654Z" fill="#4894FF"/>
</svg>
