<svg width="21" height="15" viewBox="0 0 21 15" fill="none" xmlns="http://www.w3.org/2000/svg">
<path fill-rule="evenodd" clip-rule="evenodd" d="M0.52417 7.79901C0.52417 7.24673 0.971885 6.79901 1.52417 6.79901H19.5242C20.0765 6.79901 20.5242 7.24673 20.5242 7.79901C20.5242 8.3513 20.0765 8.79901 19.5242 8.79901H1.52417C0.971885 8.79901 0.52417 8.3513 0.52417 7.79901Z" fill="#464646"/>
<path fill-rule="evenodd" clip-rule="evenodd" d="M0.52417 1.79901C0.52417 1.24673 0.971885 0.799011 1.52417 0.799011H19.5242C20.0765 0.799011 20.5242 1.24673 20.5242 1.79901C20.5242 2.3513 20.0765 2.79901 19.5242 2.79901H1.52417C0.971885 2.79901 0.52417 2.3513 0.52417 1.79901Z" fill="#464646"/>
<path fill-rule="evenodd" clip-rule="evenodd" d="M0.52417 13.799C0.52417 13.2467 0.971885 12.799 1.52417 12.799H19.5242C20.0765 12.799 20.5242 13.2467 20.5242 13.799C20.5242 14.3513 20.0765 14.799 19.5242 14.799H1.52417C0.971885 14.799 0.52417 14.3513 0.52417 13.799Z" fill="#464646"/>
</svg>
