<svg width="21" height="15" viewBox="0 0 21 15" fill="none" xmlns="http://www.w3.org/2000/svg">
<path fill-rule="evenodd" clip-rule="evenodd" d="M0.52417 7.26541C0.52417 6.71313 0.971885 6.26541 1.52417 6.26541H19.5242C20.0765 6.26541 20.5242 6.71313 20.5242 7.26541C20.5242 7.8177 20.0765 8.26541 19.5242 8.26541H1.52417C0.971885 8.26541 0.52417 7.8177 0.52417 7.26541Z" fill="#4894FF"/>
<path fill-rule="evenodd" clip-rule="evenodd" d="M0.52417 1.26541C0.52417 0.713127 0.971885 0.265411 1.52417 0.265411H19.5242C20.0765 0.265411 20.5242 0.713127 20.5242 1.26541C20.5242 1.8177 20.0765 2.26541 19.5242 2.26541H1.52417C0.971885 2.26541 0.52417 1.8177 0.52417 1.26541Z" fill="#4894FF"/>
<path fill-rule="evenodd" clip-rule="evenodd" d="M0.52417 13.2654C0.52417 12.7131 0.971885 12.2654 1.52417 12.2654H19.5242C20.0765 12.2654 20.5242 12.7131 20.5242 13.2654C20.5242 13.8177 20.0765 14.2654 19.5242 14.2654H1.52417C0.971885 14.2654 0.52417 13.8177 0.52417 13.2654Z" fill="#4894FF"/>
</svg>
