<svg width="18" height="19" viewBox="0 0 18 19" fill="none" xmlns="http://www.w3.org/2000/svg">
<path d="M12.9561 11.8245H12.1661L11.8861 11.5545C12.8661 10.4145 13.4561 8.93446 13.4561 7.32446C13.4561 3.73446 10.5461 0.824463 6.95605 0.824463C3.36605 0.824463 0.456055 3.73446 0.456055 7.32446C0.456055 10.9145 3.36605 13.8245 6.95605 13.8245C8.56605 13.8245 10.0461 13.2345 11.1861 12.2545L11.4561 12.5345V13.3245L16.4561 18.3145L17.9461 16.8245L12.9561 11.8245V11.8245ZM6.95605 11.8245C4.46605 11.8245 2.45605 9.81446 2.45605 7.32446C2.45605 4.83446 4.46605 2.82446 6.95605 2.82446C9.44605 2.82446 11.4561 4.83446 11.4561 7.32446C11.4561 9.81446 9.44605 11.8245 6.95605 11.8245Z" fill="black"/>
</svg>
