<svg width="14" height="16" viewBox="0 0 14 16" fill="none" xmlns="http://www.w3.org/2000/svg">
<path fill-rule="evenodd" clip-rule="evenodd" d="M7.15763 1.33333C5.74315 1.33333 4.38659 1.89524 3.3864 2.89543C2.3862 3.89562 1.8243 5.25218 1.8243 6.66667C1.8243 8.73204 3.16813 10.7362 4.6416 12.2915C5.36471 13.0548 6.09008 13.6796 6.63542 14.1139C6.83838 14.2755 7.01565 14.4101 7.15763 14.5151C7.29962 14.4101 7.47689 14.2755 7.67985 14.1139C8.22519 13.6796 8.95056 13.0548 9.67367 12.2915C11.1471 10.7362 12.491 8.73204 12.491 6.66667C12.491 5.25218 11.9291 3.89562 10.9289 2.89543C9.92868 1.89524 8.57212 1.33333 7.15763 1.33333ZM7.15763 15.3333C6.78783 15.888 6.78766 15.8879 6.78747 15.8878L6.78557 15.8865L6.78112 15.8835L6.76585 15.8732C6.75286 15.8644 6.73435 15.8517 6.71067 15.8353C6.66332 15.8025 6.59528 15.7547 6.50949 15.6928C6.338 15.5689 6.09521 15.3881 5.80485 15.1569C5.22519 14.6954 4.45056 14.0286 3.67367 13.2085C2.14714 11.5972 0.490967 9.26796 0.490967 6.66667C0.490967 4.89856 1.19335 3.20286 2.44359 1.95262C3.69383 0.702379 5.38952 0 7.15763 0C8.92574 0 10.6214 0.702379 11.8717 1.95262C13.1219 3.20286 13.8243 4.89856 13.8243 6.66667C13.8243 9.26796 12.1681 11.5972 10.6416 13.2085C9.86471 14.0286 9.09008 14.6954 8.51042 15.1569C8.22006 15.3881 7.97727 15.5689 7.80577 15.6928C7.71999 15.7547 7.65195 15.8025 7.6046 15.8353C7.58092 15.8517 7.5624 15.8644 7.54942 15.8732L7.53414 15.8835L7.5297 15.8865L7.52829 15.8875C7.5281 15.8876 7.52743 15.888 7.15763 15.3333ZM7.15763 15.3333L7.52743 15.888C7.3035 16.0373 7.01141 16.0371 6.78747 15.8878L7.15763 15.3333Z" fill="#A3A3A3"/>
<path fill-rule="evenodd" clip-rule="evenodd" d="M7.15763 5.33333C6.42125 5.33333 5.8243 5.93029 5.8243 6.66667C5.8243 7.40305 6.42125 8 7.15763 8C7.89401 8 8.49097 7.40305 8.49097 6.66667C8.49097 5.93029 7.89401 5.33333 7.15763 5.33333ZM4.49097 6.66667C4.49097 5.19391 5.68487 4 7.15763 4C8.63039 4 9.8243 5.19391 9.8243 6.66667C9.8243 8.13943 8.63039 9.33333 7.15763 9.33333C5.68487 9.33333 4.49097 8.13943 4.49097 6.66667Z" fill="#A3A3A3"/>
</svg>
