<svg width="61" height="41" viewBox="0 0 61 41" fill="none" xmlns="http://www.w3.org/2000/svg">
<g opacity="0.3">
<path d="M7.76294 35.2654L5.84294 32.5654C5.62694 32.5894 5.40294 32.6014 5.17094 32.6014H2.91494V35.2654H2.02694V26.8654H5.17094C6.24294 26.8654 7.08294 27.1214 7.69094 27.6334C8.29894 28.1454 8.60294 28.8494 8.60294 29.7454C8.60294 30.4014 8.43494 30.9574 8.09894 31.4134C7.77094 31.8614 7.29894 32.1854 6.68294 32.3854L8.73494 35.2654H7.76294ZM5.14694 31.8454C5.97894 31.8454 6.61494 31.6614 7.05494 31.2934C7.49494 30.9254 7.71494 30.4094 7.71494 29.7454C7.71494 29.0654 7.49494 28.5454 7.05494 28.1854C6.61494 27.8174 5.97894 27.6334 5.14694 27.6334H2.91494V31.8454H5.14694ZM16.0148 32.3734H10.7348C10.7828 33.0294 11.0348 33.5614 11.4908 33.9694C11.9468 34.3694 12.5228 34.5694 13.2188 34.5694C13.6108 34.5694 13.9708 34.5014 14.2988 34.3654C14.6268 34.2214 14.9108 34.0134 15.1508 33.7414L15.6308 34.2934C15.3508 34.6294 14.9988 34.8854 14.5748 35.0614C14.1588 35.2374 13.6988 35.3254 13.1948 35.3254C12.5468 35.3254 11.9708 35.1894 11.4668 34.9174C10.9708 34.6374 10.5828 34.2534 10.3028 33.7654C10.0228 33.2774 9.88281 32.7254 9.88281 32.1094C9.88281 31.4934 10.0148 30.9414 10.2788 30.4534C10.5508 29.9654 10.9188 29.5854 11.3828 29.3134C11.8548 29.0414 12.3828 28.9054 12.9668 28.9054C13.5508 28.9054 14.0748 29.0414 14.5388 29.3134C15.0028 29.5854 15.3668 29.9654 15.6308 30.4534C15.8948 30.9334 16.0268 31.4854 16.0268 32.1094L16.0148 32.3734ZM12.9668 29.6374C12.3588 29.6374 11.8468 29.8334 11.4308 30.2254C11.0228 30.6094 10.7908 31.1134 10.7348 31.7374H15.2108C15.1548 31.1134 14.9188 30.6094 14.5028 30.2254C14.0948 29.8334 13.5828 29.6374 12.9668 29.6374ZM17.761 26.3614H18.613V35.2654H17.761V26.3614ZM23.1917 28.9054C24.0157 28.9054 24.6477 29.1134 25.0877 29.5294C25.5277 29.9374 25.7477 30.5454 25.7477 31.3534V35.2654H24.9317V34.2814C24.7397 34.6094 24.4557 34.8654 24.0797 35.0494C23.7117 35.2334 23.2717 35.3254 22.7597 35.3254C22.0557 35.3254 21.4957 35.1574 21.0797 34.8214C20.6637 34.4854 20.4557 34.0414 20.4557 33.4894C20.4557 32.9534 20.6477 32.5214 21.0317 32.1934C21.4237 31.8654 22.0437 31.7014 22.8917 31.7014H24.8957V31.3174C24.8957 30.7734 24.7437 30.3614 24.4397 30.0814C24.1357 29.7934 23.6917 29.6494 23.1077 29.6494C22.7077 29.6494 22.3237 29.7174 21.9557 29.8534C21.5877 29.9814 21.2717 30.1614 21.0077 30.3934L20.6237 29.7574C20.9437 29.4854 21.3277 29.2774 21.7757 29.1334C22.2237 28.9814 22.6957 28.9054 23.1917 28.9054ZM22.8917 34.6534C23.3717 34.6534 23.7837 34.5454 24.1277 34.3294C24.4717 34.1054 24.7277 33.7854 24.8957 33.3694V32.3374H22.9157C21.8357 32.3374 21.2957 32.7134 21.2957 33.4654C21.2957 33.8334 21.4357 34.1254 21.7157 34.3414C21.9957 34.5494 22.3877 34.6534 22.8917 34.6534ZM31.3858 34.8814C31.2258 35.0254 31.0258 35.1374 30.7858 35.2174C30.5538 35.2894 30.3098 35.3254 30.0538 35.3254C29.4618 35.3254 29.0058 35.1654 28.6858 34.8454C28.3658 34.5254 28.2058 34.0734 28.2058 33.4894V29.6734H27.0778V28.9534H28.2058V27.5734H29.0578V28.9534H30.9778V29.6734H29.0578V33.4414C29.0578 33.8174 29.1498 34.1054 29.3338 34.3054C29.5258 34.4974 29.7978 34.5934 30.1498 34.5934C30.3258 34.5934 30.4938 34.5654 30.6538 34.5094C30.8218 34.4534 30.9658 34.3734 31.0858 34.2694L31.3858 34.8814ZM35.2941 35.3254C34.6861 35.3254 34.1381 35.1894 33.6501 34.9174C33.1621 34.6374 32.7781 34.2534 32.4981 33.7654C32.2181 33.2774 32.0781 32.7254 32.0781 32.1094C32.0781 31.4934 32.2181 30.9414 32.4981 30.4534C32.7781 29.9654 33.1621 29.5854 33.6501 29.3134C34.1381 29.0414 34.6861 28.9054 35.2941 28.9054C35.9021 28.9054 36.4501 29.0414 36.9381 29.3134C37.4261 29.5854 37.8061 29.9654 38.0781 30.4534C38.3581 30.9414 38.4981 31.4934 38.4981 32.1094C38.4981 32.7254 38.3581 33.2774 38.0781 33.7654C37.8061 34.2534 37.4261 34.6374 36.9381 34.9174C36.4501 35.1894 35.9021 35.3254 35.2941 35.3254ZM35.2941 34.5694C35.7421 34.5694 36.1421 34.4694 36.4941 34.2694C36.8541 34.0614 37.1341 33.7694 37.3341 33.3934C37.5341 33.0174 37.6341 32.5894 37.6341 32.1094C37.6341 31.6294 37.5341 31.2014 37.3341 30.8254C37.1341 30.4494 36.8541 30.1614 36.4941 29.9614C36.1421 29.7534 35.7421 29.6494 35.2941 29.6494C34.8461 29.6494 34.4421 29.7534 34.0821 29.9614C33.7301 30.1614 33.4501 30.4494 33.2421 30.8254C33.0421 31.2014 32.9421 31.6294 32.9421 32.1094C32.9421 32.5894 33.0421 33.0174 33.2421 33.3934C33.4501 33.7694 33.7301 34.0614 34.0821 34.2694C34.4421 34.4694 34.8461 34.5694 35.2941 34.5694ZM36.1461 26.4814H37.2861L35.3421 27.9694H34.5021L36.1461 26.4814ZM41.0536 30.1894C41.2536 29.7654 41.5496 29.4454 41.9416 29.2294C42.3416 29.0134 42.8336 28.9054 43.4176 28.9054V29.7334L43.2136 29.7214C42.5496 29.7214 42.0296 29.9254 41.6536 30.3334C41.2776 30.7414 41.0896 31.3134 41.0896 32.0494V35.2654H40.2376V28.9534H41.0536V30.1894ZM44.9602 28.9534H45.8122V35.2654H44.9602V28.9534ZM45.3922 27.5734C45.2162 27.5734 45.0682 27.5134 44.9482 27.3934C44.8282 27.2734 44.7682 27.1294 44.7682 26.9614C44.7682 26.8014 44.8282 26.6614 44.9482 26.5414C45.0682 26.4214 45.2162 26.3614 45.3922 26.3614C45.5682 26.3614 45.7162 26.4214 45.8362 26.5414C45.9562 26.6534 46.0162 26.7894 46.0162 26.9494C46.0162 27.1254 45.9562 27.2734 45.8362 27.3934C45.7162 27.5134 45.5682 27.5734 45.3922 27.5734ZM50.7629 35.3254C50.1549 35.3254 49.6069 35.1894 49.1189 34.9174C48.6309 34.6374 48.2469 34.2534 47.9669 33.7654C47.6869 33.2774 47.5469 32.7254 47.5469 32.1094C47.5469 31.4934 47.6869 30.9414 47.9669 30.4534C48.2469 29.9654 48.6309 29.5854 49.1189 29.3134C49.6069 29.0414 50.1549 28.9054 50.7629 28.9054C51.3709 28.9054 51.9189 29.0414 52.4069 29.3134C52.8949 29.5854 53.2749 29.9654 53.5469 30.4534C53.8269 30.9414 53.9669 31.4934 53.9669 32.1094C53.9669 32.7254 53.8269 33.2774 53.5469 33.7654C53.2749 34.2534 52.8949 34.6374 52.4069 34.9174C51.9189 35.1894 51.3709 35.3254 50.7629 35.3254ZM50.7629 34.5694C51.2109 34.5694 51.6109 34.4694 51.9629 34.2694C52.3229 34.0614 52.6029 33.7694 52.8029 33.3934C53.0029 33.0174 53.1029 32.5894 53.1029 32.1094C53.1029 31.6294 53.0029 31.2014 52.8029 30.8254C52.6029 30.4494 52.3229 30.1614 51.9629 29.9614C51.6109 29.7534 51.2109 29.6494 50.7629 29.6494C50.3149 29.6494 49.9109 29.7534 49.5509 29.9614C49.1989 30.1614 48.9189 30.4494 48.7109 30.8254C48.5109 31.2014 48.4109 31.6294 48.4109 32.1094C48.4109 32.5894 48.5109 33.0174 48.7109 33.3934C48.9189 33.7694 49.1989 34.0614 49.5509 34.2694C49.9109 34.4694 50.3149 34.5694 50.7629 34.5694ZM57.3983 35.3254C56.8863 35.3254 56.3943 35.2534 55.9223 35.1094C55.4583 34.9574 55.0943 34.7694 54.8303 34.5454L55.2143 33.8734C55.4783 34.0814 55.8103 34.2534 56.2103 34.3894C56.6103 34.5174 57.0263 34.5814 57.4583 34.5814C58.0343 34.5814 58.4583 34.4934 58.7303 34.3174C59.0103 34.1334 59.1503 33.8774 59.1503 33.5494C59.1503 33.3174 59.0743 33.1374 58.9223 33.0094C58.7703 32.8734 58.5783 32.7734 58.3463 32.7094C58.1143 32.6374 57.8063 32.5694 57.4223 32.5054C56.9103 32.4094 56.4983 32.3134 56.1863 32.2174C55.8743 32.1134 55.6063 31.9414 55.3823 31.7014C55.1663 31.4614 55.0583 31.1294 55.0583 30.7054C55.0583 30.1774 55.2783 29.7454 55.7183 29.4094C56.1583 29.0734 56.7703 28.9054 57.5543 28.9054C57.9623 28.9054 58.3703 28.9614 58.7783 29.0734C59.1863 29.1774 59.5223 29.3174 59.7863 29.4934L59.4143 30.1774C58.8943 29.8174 58.2743 29.6374 57.5543 29.6374C57.0103 29.6374 56.5983 29.7334 56.3183 29.9254C56.0463 30.1174 55.9103 30.3694 55.9103 30.6814C55.9103 30.9214 55.9863 31.1134 56.1383 31.2574C56.2983 31.4014 56.4943 31.5094 56.7263 31.5814C56.9583 31.6454 57.2783 31.7134 57.6863 31.7854C58.1903 31.8814 58.5943 31.9774 58.8983 32.0734C59.2023 32.1694 59.4623 32.3334 59.6783 32.5654C59.8943 32.7974 60.0023 33.1174 60.0023 33.5254C60.0023 34.0774 59.7703 34.5174 59.3063 34.8454C58.8503 35.1654 58.2143 35.3254 57.3983 35.3254Z" fill="#464646"/>
<path fill-rule="evenodd" clip-rule="evenodd" d="M35.5242 6.26541C36.0765 6.26541 36.5242 6.71313 36.5242 7.26541V17.2654C36.5242 17.8177 36.0765 18.2654 35.5242 18.2654C34.9719 18.2654 34.5242 17.8177 34.5242 17.2654V7.26541C34.5242 6.71313 34.9719 6.26541 35.5242 6.26541Z" fill="#464646"/>
<path fill-rule="evenodd" clip-rule="evenodd" d="M29.5242 0.265411C30.0765 0.265411 30.5242 0.713127 30.5242 1.26541V17.2654C30.5242 17.8177 30.0765 18.2654 29.5242 18.2654C28.9719 18.2654 28.5242 17.8177 28.5242 17.2654V1.26541C28.5242 0.713127 28.9719 0.265411 29.5242 0.265411Z" fill="#464646"/>
<path fill-rule="evenodd" clip-rule="evenodd" d="M23.5242 10.2654C24.0765 10.2654 24.5242 10.7131 24.5242 11.2654V17.2654C24.5242 17.8177 24.0765 18.2654 23.5242 18.2654C22.9719 18.2654 22.5242 17.8177 22.5242 17.2654V11.2654C22.5242 10.7131 22.9719 10.2654 23.5242 10.2654Z" fill="#464646"/>
</g>
</svg>
