<svg width="61" height="41" viewBox="0 0 61 41" fill="none" xmlns="http://www.w3.org/2000/svg">
<path d="M2.0328 35.2654V26.8654H5.1768C5.8888 26.8654 6.5008 26.9814 7.0128 27.2134C7.5248 27.4374 7.9168 27.7654 8.1888 28.1974C8.4688 28.6214 8.6088 29.1374 8.6088 29.7454C8.6088 30.3374 8.4688 30.8494 8.1888 31.2814C7.9168 31.7054 7.5248 32.0334 7.0128 32.2654C6.5008 32.4894 5.8888 32.6014 5.1768 32.6014H2.52479L2.9208 32.1934V35.2654H2.0328ZM7.7688 35.2654L5.6088 32.2174H6.5688L8.7408 35.2654H7.7688ZM2.9208 32.2654L2.52479 31.8454H5.1528C5.9928 31.8454 6.6288 31.6614 7.0608 31.2934C7.5008 30.9254 7.72079 30.4094 7.72079 29.7454C7.72079 29.0734 7.5008 28.5534 7.0608 28.1854C6.6288 27.8174 5.9928 27.6334 5.1528 27.6334H2.52479L2.9208 27.2134V32.2654ZM13.2007 35.3254C12.5447 35.3254 11.9687 35.1894 11.4727 34.9174C10.9767 34.6374 10.5887 34.2574 10.3087 33.7774C10.0287 33.2894 9.88867 32.7334 9.88867 32.1094C9.88867 31.4854 10.0207 30.9334 10.2847 30.4534C10.5567 29.9734 10.9247 29.5974 11.3887 29.3254C11.8607 29.0454 12.3887 28.9054 12.9727 28.9054C13.5647 28.9054 14.0887 29.0414 14.5447 29.3134C15.0087 29.5774 15.3727 29.9534 15.6367 30.4414C15.9007 30.9214 16.0327 31.4774 16.0327 32.1094C16.0327 32.1494 16.0287 32.1934 16.0207 32.2414C16.0207 32.2814 16.0207 32.3254 16.0207 32.3734H10.5367V31.7374H15.5647L15.2287 31.9894C15.2287 31.5334 15.1287 31.1294 14.9287 30.7774C14.7367 30.4174 14.4727 30.1374 14.1367 29.9374C13.8007 29.7374 13.4127 29.6374 12.9727 29.6374C12.5407 29.6374 12.1527 29.7374 11.8087 29.9374C11.4647 30.1374 11.1967 30.4174 11.0047 30.7774C10.8127 31.1374 10.7167 31.5494 10.7167 32.0134V32.1454C10.7167 32.6254 10.8207 33.0494 11.0287 33.4174C11.2447 33.7774 11.5407 34.0614 11.9167 34.2694C12.3007 34.4694 12.7367 34.5694 13.2247 34.5694C13.6087 34.5694 13.9647 34.5014 14.2927 34.3654C14.6287 34.2294 14.9167 34.0214 15.1567 33.7414L15.6367 34.2934C15.3567 34.6294 15.0047 34.8854 14.5807 35.0614C14.1647 35.2374 13.7047 35.3254 13.2007 35.3254ZM17.7669 35.2654V26.3614H18.6189V35.2654H17.7669ZM24.9375 35.2654V33.8734L24.9015 33.6454V31.3174C24.9015 30.7814 24.7495 30.3694 24.4455 30.0814C24.1495 29.7934 23.7055 29.6494 23.1135 29.6494C22.7055 29.6494 22.3175 29.7174 21.9495 29.8534C21.5815 29.9894 21.2695 30.1694 21.0135 30.3934L20.6295 29.7574C20.9495 29.4854 21.3335 29.2774 21.7815 29.1334C22.2295 28.9814 22.7015 28.9054 23.1975 28.9054C24.0135 28.9054 24.6415 29.1094 25.0815 29.5174C25.5295 29.9174 25.7535 30.5294 25.7535 31.3534V35.2654H24.9375ZM22.7655 35.3254C22.2935 35.3254 21.8815 35.2494 21.5295 35.0974C21.1855 34.9374 20.9215 34.7214 20.7375 34.4494C20.5535 34.1694 20.4615 33.8494 20.4615 33.4894C20.4615 33.1614 20.5375 32.8654 20.6895 32.6014C20.8495 32.3294 21.1055 32.1134 21.4575 31.9534C21.8175 31.7854 22.2975 31.7014 22.8975 31.7014H25.0695V32.3374H22.9215C22.3135 32.3374 21.8895 32.4454 21.6495 32.6614C21.4175 32.8774 21.3015 33.1454 21.3015 33.4654C21.3015 33.8254 21.4415 34.1134 21.7215 34.3294C22.0015 34.5454 22.3935 34.6534 22.8975 34.6534C23.3775 34.6534 23.7895 34.5454 24.1335 34.3294C24.4855 34.1054 24.7415 33.7854 24.9015 33.3694L25.0935 33.9574C24.9335 34.3734 24.6535 34.7054 24.2535 34.9534C23.8615 35.2014 23.3655 35.3254 22.7655 35.3254ZM30.0596 35.3254C29.4676 35.3254 29.0116 35.1654 28.6916 34.8454C28.3716 34.5254 28.2116 34.0734 28.2116 33.4894V27.5734H29.0636V33.4414C29.0636 33.8094 29.1556 34.0934 29.3396 34.2934C29.5316 34.4934 29.8036 34.5934 30.1556 34.5934C30.5316 34.5934 30.8436 34.4854 31.0916 34.2694L31.3916 34.8814C31.2236 35.0334 31.0196 35.1454 30.7796 35.2174C30.5476 35.2894 30.3076 35.3254 30.0596 35.3254ZM27.0836 29.6734V28.9654H30.9836V29.6734H27.0836ZM35.288 35.3254C34.68 35.3254 34.132 35.1894 33.644 34.9174C33.164 34.6374 32.784 34.2574 32.504 33.7774C32.224 33.2894 32.084 32.7334 32.084 32.1094C32.084 31.4774 32.224 30.9214 32.504 30.4414C32.784 29.9614 33.164 29.5854 33.644 29.3134C34.124 29.0414 34.672 28.9054 35.288 28.9054C35.912 28.9054 36.464 29.0414 36.944 29.3134C37.432 29.5854 37.812 29.9614 38.084 30.4414C38.364 30.9214 38.504 31.4774 38.504 32.1094C38.504 32.7334 38.364 33.2894 38.084 33.7774C37.812 34.2574 37.432 34.6374 36.944 34.9174C36.456 35.1894 35.904 35.3254 35.288 35.3254ZM35.288 34.5694C35.744 34.5694 36.148 34.4694 36.5 34.2694C36.852 34.0614 37.128 33.7734 37.328 33.4054C37.536 33.0294 37.64 32.5974 37.64 32.1094C37.64 31.6134 37.536 31.1814 37.328 30.8134C37.128 30.4454 36.852 30.1614 36.5 29.9614C36.148 29.7534 35.748 29.6494 35.3 29.6494C34.852 29.6494 34.452 29.7534 34.1 29.9614C33.748 30.1614 33.468 30.4454 33.26 30.8134C33.052 31.1814 32.948 31.6134 32.948 32.1094C32.948 32.5974 33.052 33.0294 33.26 33.4054C33.468 33.7734 33.748 34.0614 34.1 34.2694C34.452 34.4694 34.848 34.5694 35.288 34.5694ZM34.508 27.9814L36.152 26.4934H37.292L35.348 27.9814H34.508ZM40.2434 35.2654V28.9654H41.0594V30.6814L40.9754 30.3814C41.1514 29.9014 41.4474 29.5374 41.8634 29.2894C42.2794 29.0334 42.7954 28.9054 43.4114 28.9054V29.7334C43.3794 29.7334 43.3474 29.7334 43.3154 29.7334C43.2834 29.7254 43.2514 29.7214 43.2194 29.7214C42.5554 29.7214 42.0354 29.9254 41.6594 30.3334C41.2834 30.7334 41.0954 31.3054 41.0954 32.0494V35.2654H40.2434ZM44.9661 35.2654V28.9654H45.8181V35.2654H44.9661ZM45.3981 27.5734C45.2221 27.5734 45.0741 27.5134 44.9541 27.3934C44.8341 27.2734 44.7741 27.1294 44.7741 26.9614C44.7741 26.7934 44.8341 26.6534 44.9541 26.5414C45.0741 26.4214 45.2221 26.3614 45.3981 26.3614C45.5741 26.3614 45.7221 26.4174 45.8421 26.5294C45.9621 26.6414 46.0221 26.7814 46.0221 26.9494C46.0221 27.1254 45.9621 27.2734 45.8421 27.3934C45.7301 27.5134 45.5821 27.5734 45.3981 27.5734ZM50.7567 35.3254C50.1487 35.3254 49.6007 35.1894 49.1127 34.9174C48.6327 34.6374 48.2527 34.2574 47.9727 33.7774C47.6927 33.2894 47.5527 32.7334 47.5527 32.1094C47.5527 31.4774 47.6927 30.9214 47.9727 30.4414C48.2527 29.9614 48.6327 29.5854 49.1127 29.3134C49.5927 29.0414 50.1407 28.9054 50.7567 28.9054C51.3807 28.9054 51.9327 29.0414 52.4127 29.3134C52.9007 29.5854 53.2807 29.9614 53.5527 30.4414C53.8327 30.9214 53.9727 31.4774 53.9727 32.1094C53.9727 32.7334 53.8327 33.2894 53.5527 33.7774C53.2807 34.2574 52.9007 34.6374 52.4127 34.9174C51.9247 35.1894 51.3727 35.3254 50.7567 35.3254ZM50.7567 34.5694C51.2127 34.5694 51.6167 34.4694 51.9687 34.2694C52.3207 34.0614 52.5967 33.7734 52.7967 33.4054C53.0047 33.0294 53.1087 32.5974 53.1087 32.1094C53.1087 31.6134 53.0047 31.1814 52.7967 30.8134C52.5967 30.4454 52.3207 30.1614 51.9687 29.9614C51.6167 29.7534 51.2167 29.6494 50.7687 29.6494C50.3207 29.6494 49.9207 29.7534 49.5687 29.9614C49.2167 30.1614 48.9367 30.4454 48.7287 30.8134C48.5207 31.1814 48.4167 31.6134 48.4167 32.1094C48.4167 32.5974 48.5207 33.0294 48.7287 33.4054C48.9367 33.7734 49.2167 34.0614 49.5687 34.2694C49.9207 34.4694 50.3167 34.5694 50.7567 34.5694ZM57.4042 35.3254C56.8842 35.3254 56.3922 35.2534 55.9282 35.1094C55.4642 34.9574 55.1002 34.7694 54.8362 34.5454L55.2202 33.8734C55.4762 34.0654 55.8042 34.2334 56.2042 34.3774C56.6042 34.5134 57.0242 34.5814 57.4642 34.5814C58.0642 34.5814 58.4962 34.4894 58.7602 34.3054C59.0242 34.1134 59.1562 33.8614 59.1562 33.5494C59.1562 33.3174 59.0802 33.1374 58.9282 33.0094C58.7842 32.8734 58.5922 32.7734 58.3522 32.7094C58.1122 32.6374 57.8442 32.5774 57.5482 32.5294C57.2522 32.4814 56.9562 32.4254 56.6602 32.3614C56.3722 32.2974 56.1082 32.2054 55.8682 32.0854C55.6282 31.9574 55.4322 31.7854 55.2802 31.5694C55.1362 31.3534 55.0642 31.0654 55.0642 30.7054C55.0642 30.3614 55.1602 30.0534 55.3522 29.7814C55.5442 29.5094 55.8242 29.2974 56.1922 29.1454C56.5682 28.9854 57.0242 28.9054 57.5602 28.9054C57.9682 28.9054 58.3762 28.9614 58.7842 29.0734C59.1922 29.1774 59.5282 29.3174 59.7922 29.4934L59.4202 30.1774C59.1402 29.9854 58.8402 29.8494 58.5202 29.7694C58.2002 29.6814 57.8802 29.6374 57.5602 29.6374C56.9922 29.6374 56.5722 29.7374 56.3002 29.9374C56.0362 30.1294 55.9042 30.3774 55.9042 30.6814C55.9042 30.9214 55.9762 31.1094 56.1202 31.2454C56.2722 31.3814 56.4682 31.4894 56.7082 31.5694C56.9562 31.6414 57.2242 31.7014 57.5122 31.7494C57.8082 31.7974 58.1002 31.8574 58.3882 31.9294C58.6842 31.9934 58.9522 32.0854 59.1922 32.2054C59.4402 32.3174 59.6362 32.4814 59.7802 32.6974C59.9322 32.9054 60.0082 33.1814 60.0082 33.5254C60.0082 33.8934 59.9042 34.2134 59.6962 34.4854C59.4962 34.7494 59.2002 34.9574 58.8082 35.1094C58.4242 35.2534 57.9562 35.3254 57.4042 35.3254Z" fill="#4894FF"/>
<path fill-rule="evenodd" clip-rule="evenodd" d="M35.5242 6.26541C36.0765 6.26541 36.5242 6.71313 36.5242 7.26541V17.2654C36.5242 17.8177 36.0765 18.2654 35.5242 18.2654C34.9719 18.2654 34.5242 17.8177 34.5242 17.2654V7.26541C34.5242 6.71313 34.9719 6.26541 35.5242 6.26541Z" fill="#4894FF"/>
<path fill-rule="evenodd" clip-rule="evenodd" d="M29.5242 0.265411C30.0765 0.265411 30.5242 0.713127 30.5242 1.26541V17.2654C30.5242 17.8177 30.0765 18.2654 29.5242 18.2654C28.9719 18.2654 28.5242 17.8177 28.5242 17.2654V1.26541C28.5242 0.713127 28.9719 0.265411 29.5242 0.265411Z" fill="#4894FF"/>
<path fill-rule="evenodd" clip-rule="evenodd" d="M23.5242 10.2654C24.0765 10.2654 24.5242 10.7131 24.5242 11.2654V17.2654C24.5242 17.8177 24.0765 18.2654 23.5242 18.2654C22.9719 18.2654 22.5242 17.8177 22.5242 17.2654V11.2654C22.5242 10.7131 22.9719 10.2654 23.5242 10.2654Z" fill="#4894FF"/>
</svg>
