<svg width="15" height="19" viewBox="0 0 15 19" fill="none" xmlns="http://www.w3.org/2000/svg">
<path fill-rule="evenodd" clip-rule="evenodd" d="M13.5242 6.26541C14.0765 6.26541 14.5242 6.71313 14.5242 7.26541V17.2654C14.5242 17.8177 14.0765 18.2654 13.5242 18.2654C12.9719 18.2654 12.5242 17.8177 12.5242 17.2654V7.26541C12.5242 6.71313 12.9719 6.26541 13.5242 6.26541Z" fill="#4894FF"/>
<path fill-rule="evenodd" clip-rule="evenodd" d="M7.52417 0.265411C8.07645 0.265411 8.52417 0.713127 8.52417 1.26541V17.2654C8.52417 17.8177 8.07645 18.2654 7.52417 18.2654C6.97189 18.2654 6.52417 17.8177 6.52417 17.2654V1.26541C6.52417 0.713127 6.97189 0.265411 7.52417 0.265411Z" fill="#4894FF"/>
<path fill-rule="evenodd" clip-rule="evenodd" d="M1.52417 10.2654C2.07645 10.2654 2.52417 10.7131 2.52417 11.2654V17.2654C2.52417 17.8177 2.07645 18.2654 1.52417 18.2654C0.971885 18.2654 0.52417 17.8177 0.52417 17.2654V11.2654C0.52417 10.7131 0.971885 10.2654 1.52417 10.2654Z" fill="#4894FF"/>
</svg>
