<svg width="15" height="19" viewBox="0 0 15 19" fill="none" xmlns="http://www.w3.org/2000/svg">
<path fill-rule="evenodd" clip-rule="evenodd" d="M13.5242 6.79901C14.0765 6.79901 14.5242 7.24673 14.5242 7.79901V17.799C14.5242 18.3513 14.0765 18.799 13.5242 18.799C12.9719 18.799 12.5242 18.3513 12.5242 17.799V7.79901C12.5242 7.24673 12.9719 6.79901 13.5242 6.79901Z" fill="#464646"/>
<path fill-rule="evenodd" clip-rule="evenodd" d="M7.52417 0.799011C8.07645 0.799011 8.52417 1.24673 8.52417 1.79901V17.799C8.52417 18.3513 8.07645 18.799 7.52417 18.799C6.97189 18.799 6.52417 18.3513 6.52417 17.799V1.79901C6.52417 1.24673 6.97189 0.799011 7.52417 0.799011Z" fill="#464646"/>
<path fill-rule="evenodd" clip-rule="evenodd" d="M1.52417 10.799C2.07645 10.799 2.52417 11.2467 2.52417 11.799V17.799C2.52417 18.3513 2.07645 18.799 1.52417 18.799C0.971885 18.799 0.52417 18.3513 0.52417 17.799V11.799C0.52417 11.2467 0.971885 10.799 1.52417 10.799Z" fill="#464646"/>
</svg>
